<?xml version="1.0" standalone="no"?>
<!DOCTYPE svg PUBLIC "-//W3C//DTD SVG 1.1//EN" "http://www.w3.org/Graphics/SVG/1.1/DTD/svg11.dtd" >
<svg xmlns="http://www.w3.org/2000/svg">
<metadata>Generated by IcoMoon</metadata>
<defs>
<font id="EPO-Icon-Font" horiz-adv-x="1024">
<font-face units-per-em="1024" ascent="960" descent="-64" />
<missing-glyph horiz-adv-x="1024" />
<glyph unicode="&#x20;" horiz-adv-x="512" d="" />
<glyph unicode="&#xf1;" glyph-name="bell-o" d="M520.857-3.715q0 8.857-8.857 8.857-32.66 0-56.188 23.527t-23.527 56.188q0 8.857-8.857 8.857t-8.857-8.857q0-40.41 28.509-68.92t68.92-28.509q8.857 0 8.857 8.857zM152.178 155.715h719.643q-147.25 166.072-147.25 460.572 0 28.232-13.285 58.125t-38.197 57.018-67.259 44.563-93.83 17.438-93.83-17.438-67.259-44.563-38.197-57.018-13.285-58.125q0-294.5-147.25-460.572zM972.572 155.715q0-28.785-21.035-49.822t-49.822-21.035h-248q0-58.678-41.518-100.197t-100.197-41.518-100.197 41.518-41.518 100.197h-248q-28.785 0-49.822 21.035t-21.035 49.822q27.678 23.25 50.375 48.715t47.053 66.152 41.241 87.741 27.678 114.035 10.795 143.928q0 84.143 64.768 156.384t169.947 87.741q-4.428 10.518-4.428 21.59 0 22.143 15.5 37.643t37.643 15.5 37.643-15.5 15.5-37.643q0-11.072-4.428-21.59 105.178-15.5 169.947-87.741t64.768-156.384q0-76.947 10.795-143.928t27.678-114.035 41.241-87.741 47.053-66.152 50.375-48.715z" />
<glyph unicode="&#x25a9;" glyph-name="searchconcepthelper" d="M639.952 734.841c-36.976 24.496-79.856 37.44-124.064 37.44-75.728 0-145.904-37.664-187.728-100.72-68.512-103.376-40.128-243.232 63.248-311.744 36.976-24.496 79.888-37.456 124.064-37.456 75.744 0 145.904 37.648 187.696 100.672 68.512 103.392 40.16 243.264-63.216 311.808zM515.888 740.649c37.952 0 74.8-11.12 106.576-32.176 24.768-16.416 44.32-37.68 58.656-61.616h-330.88c1.456 2.4 2.72 4.864 4.288 7.232 35.936 54.192 96.272 86.56 161.36 86.56zM515.472 353.993c-37.952 0-74.816 11.104-106.592 32.176-15.76 10.448-29.392 22.912-40.992 36.688h295.584c-36.512-43.44-90.336-68.864-148-68.864zM1008 646.857h-203.616c-21.84 60.992-62.448 115.824-120.48 154.288-51.184 33.904-110.544 51.824-171.68 51.824-104.832 0-201.92-52.096-259.728-139.344-14.032-21.168-25.024-43.632-33.296-66.768h-203.2v-224h208.512c13.616-33.152 32.944-64.336 58.128-91.712l-152.576-230.224c-39.248-59.2 2.832-87.12 23.104-100.576 14.352-9.488 30.048-18.304 47.36-18.304 20.384 0 38.128 11.84 54.24 36.192l152.608 230.256c33.488-12 68.512-18.080 104.336-18.080 104.768 0 201.872 52.112 259.68 139.328 11.312 17.056 20.576 34.88 28.128 53.12h208.48v224zM744.992 387.209c-51.92-78.368-139.136-125.168-233.296-125.168-36.080 0-71.264 6.848-104.592 20.384l-11.984 4.864-166.736-251.568c-14.576-22.032-24.592-22.032-27.872-22.032-8.992 0-20.176 6.592-29.904 13.008-25.568 16.976-34 26.864-14.208 56.736l166.704 251.552-9.136 9.136c-93.552 93.568-108.336 241.616-35.136 352.016 51.936 78.384 139.168 125.184 233.36 125.184 54.896 0 108.224-16.096 154.208-46.56 62.272-41.28 104.72-104.304 119.568-177.504 14.88-73.184 0.32-147.792-40.976-210.048z" />
<glyph unicode="&#x2b55;" glyph-name="EPO-logo" d="M811.2 129.257c-12 0-24 4.8-32.8 14.4-16.8 18.4-16 46.4 2.4 63.2 28.8 27.2 62.4 134.4 68 187.2 4 35.2 13.6 128-32.8 230.4-27.2 60-81.6 119.2-168 180-20 14.4-24.8 42.4-10.4 62.4s42.4 24.8 62.4 10.4c99.2-70.4 164-141.6 197.6-216.8 56-124.8 44.8-234.4 40-276-4.8-44.8-37.6-189.6-96.8-244.8-7.2-6.4-18.4-10.4-29.6-10.4zM275.2-9.143c-76.8 0-143.2 18.4-192.8 52.8-20 14.4-24.8 42.4-10.4 62.4s42.4 24.8 62.4 10.4c110.4-78.4 375.2-21.6 487.2 106.4 90.4 101.6 119.2 255.2 66.4 356-49.6 94.4-160.8 167.2-207.2 187.2-22.4 9.6-32.8 36-23.2 59.2 9.6 22.4 36 32.8 59.2 23.2 66.4-28.8 192.8-116.8 251.2-228 69.6-134.4 36.8-326.4-78.4-456-64.8-73.6-174.4-132.8-292.8-159.2-41.6-9.6-83.2-14.4-121.6-14.4zM291.2 114.857c-56.8 0-108.8 15.2-146.4 45.6-16 12.8-18.4 36.8-5.6 52.8s36.8 18.4 52.8 5.6c46.4-37.6 141.6-37.6 221.6 0 52 24.8 136.8 99.2 157.6 201.6 24.8 123.2-29.6 162.4-106.4 216l-0.8 0.8c-16.8 12-20.8 35.2-8.8 52s35.2 20.8 52 8.8l1.6-0.8c80-56.8 170.4-121.6 136-292-24.8-121.6-120-216.8-198.4-254.4-51.2-24-104.8-36-155.2-36zM498.4 564.457c-63.2 58.4-176.8 37.6-254.4-46.4s-88.8-199.2-26.4-257.6c63.2-58.4 176.8-37.6 254.4 46.4s89.6 199.2 26.4 257.6zM405.6 375.657c-38.4-50.4-91.2-74.4-117.6-54.4s-16 76.8 22.4 127.2c38.4 50.4 91.2 74.4 117.6 54.4s16.8-76.8-22.4-127.2z" />
<glyph unicode="&#xe001;" glyph-name="Deputised" horiz-adv-x="1489" d="M1297.373 410.43c7.866 7.943 7.866 20.652 0 28.594l-233.469 235.746c-7.866 7.943-20.452 7.943-28.318 0l-52.232-52.741c-7.866-7.943-7.866-20.652 0-28.594l167.078-168.707-167.078-168.707c-7.866-7.943-7.866-20.652 0-28.594l52.232-52.741c7.866-7.943 20.452-7.943 28.318 0l233.469 235.746zM837.818 232.061c0-68.727-46.413-109.879-114.744-109.879h-375.603c-68.331 0-114.744 41.152-114.744 109.879 0 95.879 22.777 243.091 148.694 243.091 13.322 0 69.62-58.97 153.851-58.97s140.529 58.97 153.851 58.97c125.917 0 148.694-147.212 148.694-243.091zM700.298 610.909c0-89.939-73.917-162.909-165.025-162.909s-165.025 72.97-165.025 162.909c0 89.939 73.917 162.909 165.025 162.909s165.025-72.97 165.025-162.909z" />
<glyph unicode="&#xe002;" glyph-name="Deputised-inv" horiz-adv-x="1489" d="M0 773.373c0 103.071 83.271 186.627 186.38 186.627h1116.695c102.935 0 186.38-83.798 186.38-186.627v-650.747c0-103.071-83.271-186.627-186.38-186.627h-1116.695c-102.935 0-186.38 83.798-186.38 186.627v650.747zM1297.373 410.43c7.866 7.943 7.866 20.652 0 28.594l-233.469 235.746c-7.866 7.943-20.452 7.943-28.318 0l-52.232-52.741c-7.866-7.943-7.866-20.652 0-28.594l167.078-168.707-167.078-168.707c-7.866-7.943-7.866-20.652 0-28.594l52.232-52.741c7.866-7.943 20.452-7.943 28.318 0l233.469 235.746zM837.818 232.061c0 95.879-22.777 243.091-148.694 243.091-13.322 0-69.62-58.97-153.851-58.97s-140.529 58.97-153.851 58.97c-125.917 0-148.694-147.212-148.694-243.091 0-68.727 46.413-109.879 114.744-109.879h375.603c68.331 0 114.744 41.152 114.744 109.879zM700.298 610.909c0 89.939-73.917 162.909-165.025 162.909s-165.025-72.97-165.025-162.909c0-89.939 73.917-162.909 165.025-162.909s165.025 72.97 165.025 162.909z" />
<glyph unicode="&#xe900;" glyph-name="bg-hexagon" horiz-adv-x="870" d="M435.2 960l435.2-256v-512l-435.2-256-435.2 256v512z" />
<glyph unicode="&#xe901;" glyph-name="amendment" horiz-adv-x="870" d="M435.2 918.419l-399.36-234.918v-471.003l399.36-234.918 399.36 234.918v471.003l-399.36 234.918zM435.2 960l435.2-256v-512l-435.2-256-435.2 256v512l435.2 256zM505.736 330.705h-145.458l-29.238-115.433h-109.642l149.113 485.562h129.378l149.113-485.562h-114.028l-29.238 115.433zM483.808 416.349l-10.964 44.684c-6.822 24.328-13.401 50.145-19.736 77.452s-12.67 53.62-19.005 78.941h-2.924c-5.848-25.817-11.817-52.255-17.908-79.313s-12.548-52.751-19.37-77.079l-11.695-44.684h101.602z" />
<glyph unicode="&#xe902;" glyph-name="disclosure" horiz-adv-x="870" d="M435.2 918.419l-399.36-234.918v-471.003l399.36-234.918 399.36 234.918v471.003l-399.36 234.918zM435.2 960l435.2-256v-512l-435.2-256-435.2 256v512l435.2 256zM282.249 700.835h134.494c36.548 0 69.44-4.717 98.678-14.15s54.334-23.955 75.287-43.567c20.954-19.611 37.035-44.559 48.242-74.845s16.812-66.281 16.812-107.985c0-41.705-5.604-77.948-16.812-108.73s-27.045-56.227-47.512-76.335c-20.467-20.108-44.953-35.126-73.46-45.056s-60.303-14.895-95.389-14.895h-140.342v485.562zM410.165 303.895c20.467 0 38.984 2.731 55.552 8.192s30.7 14.274 42.395 26.438c11.695 12.164 20.832 28.175 27.41 48.035s9.868 44.435 9.868 73.728c0 28.796-3.289 53-9.868 72.611s-15.715 35.25-27.41 46.918c-11.695 11.667-25.827 19.983-42.395 24.948s-35.085 7.447-55.552 7.447h-20.467v-308.317h20.467z" />
<glyph unicode="&#xe903;" glyph-name="formal-issue" horiz-adv-x="870" d="M435.2 918.419l-399.36-234.918v-471.003l399.36-234.918 399.36 234.918v471.003l-399.36 234.918zM435.2 960l435.2-256v-512l-435.2-256-435.2 256v512l435.2 256zM322.817 700.835h300.419v-92.346h-192.97v-112.454h165.194v-92.346h-165.194v-188.416h-107.449z" />
<glyph unicode="&#xe904;" glyph-name="intensive-step" horiz-adv-x="870" d="M435.2 918.419l-399.36-234.918v-471.003l399.36-234.918 399.36 234.918v471.003l-399.36 234.918zM435.2 960l435.2-256v-512l-435.2-256-435.2 256v512l435.2 256zM389.516 680.727h107.449v-485.562h-107.449z" />
<glyph unicode="&#xe905;" glyph-name="novelty" horiz-adv-x="870" d="M435.2 918.419l-399.36-234.918v-471.003l399.36-234.918 399.36 234.918v471.003l-399.36 234.918zM435.2 960l435.2-256v-512l-435.2-256-435.2 256v512l435.2 256zM252.463 680.727h110.373l124.261-241.292 46.781-107.241h2.924c-2.437 25.817-5.238 54.613-8.406 86.388s-4.751 62.060-4.751 90.857v171.287h102.333v-485.562h-110.373l-124.261 242.036-46.781 105.751h-2.924c2.437-26.81 5.238-55.606 8.406-86.388s4.751-60.571 4.751-89.367v-172.032h-102.333v485.562z" />
<glyph unicode="&#xe906;" glyph-name="non-unity" horiz-adv-x="870" d="M435.2 918.419l-399.36-234.918v-471.003l399.36-234.918 399.36 234.918v471.003l-399.36 234.918zM435.2 960l435.2-256v-512l-435.2-256-435.2 256v512l435.2 256zM71.675 678.4h104.79l117.976-224.848 44.414-99.933h2.776c-2.313 24.058-4.973 50.891-7.981 80.501s-4.511 57.831-4.511 84.665v159.614h97.157v-452.472h-104.79l-117.976 225.542-44.414 98.545h-2.776c2.313-24.983 4.973-51.817 7.981-80.501s4.511-56.443 4.511-83.277v-160.308h-97.157v452.472zM456.039 678.4h102.708v-253.301c0-44.415 6.708-75.412 20.125-92.993s32.848-26.371 58.294-26.371c25.446 0 45.108 8.79 58.988 26.371s20.819 48.578 20.819 92.993v253.301h98.545v-242.892c0-75.875-15.152-131.161-45.455-165.86s-74.602-52.048-132.896-52.048c-58.757 0-103.634 17.349-134.631 52.048s-46.496 89.985-46.496 165.86v242.892z" />
<glyph unicode="&#xe907;" glyph-name="patentability" horiz-adv-x="870" d="M435.2 918.419l-399.36-234.918v-471.003l399.36-234.918 399.36 234.918v471.003l-399.36 234.918zM435.2 960l435.2-256v-512l-435.2-256-435.2 256v512l435.2 256zM270.006 700.835h173.965c25.827 0 50.070-2.607 72.729-7.82s42.395-13.902 59.207-26.065c16.812-12.164 30.091-28.3 39.837-48.407s14.619-44.808 14.619-74.1c0-28.3-4.995-52.876-14.984-73.728s-23.512-37.981-40.568-51.386c-17.055-13.405-36.791-23.335-59.207-29.789s-46.293-9.681-71.633-9.681h-66.516v-164.585h-107.449v485.562zM437.393 466.991c58.476 0 87.714 25.817 87.714 77.452 0 25.321-7.431 43.194-22.294 53.62s-36.669 15.639-65.42 15.639h-59.938v-146.711h59.938z" />
<glyph unicode="&#xe908;" glyph-name="bg-embodiments" d="M0 655.090l273.859 304.91h750.141v-712.4l-264.16-311.6h-759.84z" />
<glyph unicode="&#xe909;" glyph-name="embodiments" d="M35.84 641.357v-669.517h707.398l244.922 288.907v663.413h-698.317l-254.003-282.803zM0 655.090l273.859 304.91h750.141v-712.4l-264.16-311.6h-759.84v719.090zM310.471 743.157h380.499v-131.509h-224.676v-93.152h192.062v-131.509h-192.062v-105.938h233.735v-131.509h-389.559z" />
<glyph unicode="&#xe90a;" glyph-name="bg-sensitive-matter" horiz-adv-x="870" d="M538.521 894.838c33.397-33.536 69.576-75.454 108.539-125.758s74.968-102.659 108.017-157.069c33.049-54.41 60.531-108.134 82.448-161.175s32.875-99.066 32.875-138.077c-0.696-52.014-12.698-100.948-36.006-146.803s-54.791-85.72-94.45-119.598c-39.659-33.878-85.753-60.74-138.283-80.588s-108.017-29.771-166.461-29.771c-60.532 2.053-117.062 11.806-169.592 31.311s-98.45 46.368-137.761 80.588c-39.311 34.22-70.446 74.086-93.406 119.598s-34.44 94.275-34.44 146.29c0 44.486 15.307 97.697 45.92 159.635s67.141 123.533 109.583 184.787c42.442 61.254 86.1 117.374 130.977 168.361s81.578 88.116 110.105 111.385c8.349 6.844 15.655 11.977 21.917 15.399s11.48 5.475 15.655 6.16c11.132 2.053 25.395-2.395 42.789-13.346s37.919-28.060 61.575-51.33z" />
<glyph unicode="&#xe90b;" glyph-name="sensitive-matter" horiz-adv-x="870" d="M457.852 915.838c-10.507 6.615-16.65 8.531-17.897 8.308 0.442 0.073-1.248-0.593-4.266-2.242-4.070-2.224-9.626-6.128-16.449-11.721-26.72-21.796-62.168-57.656-105.855-107.292-43.94-49.924-86.751-104.953-128.422-165.094-41.46-59.837-77.092-119.922-106.912-180.255-28.372-57.403-42.21-105.508-42.21-143.755 0-46.436 10.178-89.667 30.599-130.147 20.858-41.345 49.11-77.519 84.939-108.708 35.989-31.328 78.153-55.994 126.705-74.022 47.382-17.594 99.747-27.103 157.117-29.070 54.16 0 105.354 9.156 153.794 27.458 48.728 18.411 91.223 43.176 127.672 74.312 36.085 30.825 64.616 66.953 85.779 108.587 20.817 40.953 31.496 84.494 32.115 130.563 0 33.78-9.901 75.364-30.158 124.39-21.194 51.293-47.84 103.381-79.956 156.256-32.347 53.254-67.585 104.494-105.72 153.728-38.058 49.134-73.243 89.909-105.469 122.283-21.914 21.545-40.526 37.054-55.404 46.421zM513.126 869.548l0.262-0.26c-0.044 0.043-0.088 0.086-0.132 0.13s-0.087 0.087-0.13 0.131zM538.521 894.838c33.397-33.536 69.576-75.454 108.539-125.758s74.968-102.659 108.017-157.069c33.049-54.41 60.531-108.134 82.448-161.175s32.875-99.066 32.875-138.077c-0.696-52.014-12.698-100.948-36.006-146.803s-54.791-85.72-94.45-119.598c-39.659-33.878-85.753-60.74-138.283-80.588s-108.017-29.771-166.461-29.771c-60.532 2.053-117.062 11.806-169.592 31.311s-98.45 46.368-137.761 80.588c-39.311 34.22-70.446 74.086-93.406 119.598s-34.44 94.275-34.44 146.29c0 44.486 15.307 97.697 45.92 159.635s67.141 123.533 109.583 184.787c42.442 61.254 86.1 117.374 130.977 168.361s81.578 88.116 110.105 111.385c8.349 6.844 15.655 11.977 21.917 15.399s11.48 5.475 15.655 6.16c11.132 2.053 25.395-2.395 42.789-13.346s37.919-28.060 61.575-51.33zM331.79 257.598c11.946 9.14 21.072 19.912 27.377 32.316s9.458 26.44 9.458 42.109c0 10.446-1.327 20.075-3.982 28.888s-6.637 16.484-11.946 23.013c-5.31 6.529-12.112 12.404-20.408 17.627s-17.754 9.793-28.373 13.71c-5.31 1.959-10.619 3.754-15.929 5.386s-10.619 2.775-15.929 3.427c-4.646 1.306-9.458 2.448-14.435 3.427s-10.121 2.122-15.431 3.427c-8.628 1.959-15.597 4.080-20.906 6.365s-9.292 4.407-11.946 6.365c-3.318 2.611-5.641 5.386-6.969 8.324s-1.991 6.365-1.991 10.282c0 3.264 0.498 6.039 1.493 8.324s2.157 4.407 3.484 6.365c1.991 2.611 3.982 4.733 5.973 6.365s4.314 3.101 6.969 4.407c3.318 1.306 6.305 2.448 8.96 3.427s5.641 1.469 8.96 1.469c2.655 0.653 5.475 1.142 8.462 1.469s6.139 0.49 9.458 0.49c9.292 0 18.251-0.816 26.879-2.448s16.924-4.080 24.888-7.345c8.628-3.264 16.592-6.202 23.893-8.813s13.606-7.834 18.915-15.668h6.969v69.528c-7.301 3.264-15.099 6.039-23.395 8.324s-17.090 4.407-26.382 6.365c-9.292 1.959-18.583 3.427-27.875 4.407s-18.583 1.469-27.875 1.469c-18.583 0-35.673-2.285-51.27-6.855s-29.7-11.098-42.31-19.585c-11.946-9.14-21.072-19.585-27.377-31.337s-9.458-24.808-9.458-39.171c0-11.098 1.327-21.054 3.982-29.868s6.637-16.811 11.946-23.992c5.31-7.181 12.278-13.547 20.906-19.096s18.915-10.609 30.862-15.179c5.31-1.306 10.785-2.775 16.426-4.407s11.78-3.101 18.417-4.407c5.973-1.306 11.78-2.611 17.422-3.917s11.117-2.611 16.426-3.917c4.646-1.306 8.794-2.775 12.444-4.407s6.803-3.754 9.458-6.365c3.318-2.611 5.807-5.386 7.467-8.324s2.489-6.365 2.489-10.282c0-3.917-0.498-7.181-1.493-9.793s-2.489-4.896-4.48-6.855c-1.991-1.959-4.148-3.754-6.471-5.386s-4.812-3.101-7.467-4.407c-2.655-1.306-5.475-2.122-8.462-2.448s-6.139-0.816-9.458-1.469c-3.982-0.653-7.467-0.979-10.453-0.979h-7.467c-9.292 0-18.417 1.306-27.377 3.917s-18.417 5.549-28.373 8.813c-9.292 3.917-18.251 8.65-26.879 14.199s-16.924 12.241-24.888 20.075h-6.969v-77.362c7.301-3.264 15.265-7.018 23.893-11.262s17.588-7.345 26.879-9.303c8.628-2.611 18.251-4.407 28.871-5.386s21.902-1.469 33.848-1.469c21.238 0 40.153 2.285 56.746 6.855s31.193 11.425 43.804 20.565zM401.011 546.5v-308.759h63.519v216.65h0.864l75.618-216.65h52.285l75.618 218.812h0.864v-218.812h63.519v308.759h-95.495l-68.272-212.326h-0.864l-72.161 212.326z" />
<glyph unicode="&#xe90c;" glyph-name="bg-problem" d="M511.483 960l512.517-1024h-1024z" />
<glyph unicode="&#xe90d;" glyph-name="problem" d="M511.516 879.859l-453.552-908.019h908.019l-454.468 908.019zM511.483 960l512.517-1024h-1024l511.483 1024zM358.4 63.193v436.007h139.965c26.302 0 48.064-0.475 65.286-1.425s29.903-2.691 38.044-5.224c12.525-3.166 23.954-8.232 34.287-15.199s19.57-16.148 27.711-27.547c8.141-10.766 14.404-23.273 18.787-37.521s6.576-29.922 6.576-47.020c0-13.299-1.252-25.647-3.757-37.046s-6.262-21.531-11.272-30.397c-4.384-9.499-9.707-17.732-15.969-24.698s-13.151-13.299-20.666-18.998c-6.889-5.066-14.090-9.341-21.605-12.824s-15.343-5.858-23.484-7.124c-10.020-2.533-22.545-4.275-37.575-5.224s-32.564-1.425-52.604-1.425h-56.362v-164.334h-87.361zM454.591 427.708v-125.479h46.915c17.515 0 31.902 0.639 43.162 1.916s20.017 2.874 26.272 4.789c5.63 2.554 10.634 5.587 15.013 9.1s8.445 7.822 12.198 12.931c3.128 5.109 5.473 10.377 7.037 15.805s2.346 11.654 2.346 18.678c0 7.663-1.095 14.847-3.284 21.552s-5.786 12.612-10.79 17.72c-4.379 5.109-9.539 9.259-15.482 12.452s-12.354 5.428-19.235 6.705c-5.004 1.277-12.823 2.235-23.458 2.874s-23.77 0.958-39.409 0.958h-41.285z" />
<glyph unicode="&#xe90e;" glyph-name="bg-solution" d="M512.517-64l-512.517 1024h1024l-192.194-385.567z" />
<glyph unicode="&#xe90f;" glyph-name="solution" d="M512.504 16.101l287.226 574.321 166.359 333.738h-908.072l454.488-908.059zM512.517-64l-512.517 1024h1024l-192.194-385.567-319.29-638.433zM336.668 570.618l82.661 8.089c2.37-14.381 6.074-26.664 11.11-36.851s11.407-18.575 19.11-25.166c7.111-6.591 15.851-11.535 26.22-14.83s22.072-4.943 35.109-4.943c13.629 0 25.48 1.498 35.553 4.494s18.665 7.49 25.776 13.482c6.518 5.393 11.555 11.535 15.11 18.425s5.333 14.231 5.333 22.021c0 5.393-0.741 10.186-2.222 14.381s-3.703 8.089-6.666 11.684c-2.963 3.595-6.962 6.891-11.999 9.887s-11.11 5.692-18.221 8.089c-4.74 1.798-12.74 4.194-23.998 7.19s-25.776 6.891-43.553 11.684c-22.517 5.393-41.775 11.535-57.774 18.425s-28.442 14.531-37.331 22.919c-13.036 11.984-22.813 25.017-29.331 39.098s-9.777 29.511-9.777 46.288c0 10.786 1.481 21.272 4.444 31.458s7.703 19.774 14.221 28.762c5.926 9.587 13.184 17.976 21.776 25.166s18.517 13.182 29.776 17.976c11.851 4.794 24.591 8.389 38.22 10.786s28.442 3.595 44.441 3.595c26.072 0 49.034-2.846 68.884-8.539s36.59-14.531 50.219-26.515c13.036-11.385 23.109-24.867 30.22-40.446s10.962-32.956 11.555-52.131l-84.439-3.595c-1.778 10.786-4.74 20.073-8.888 27.863s-9.185 14.081-15.11 18.875c-5.926 4.794-13.332 8.389-22.221 10.786s-19.258 3.595-31.109 3.595c-12.444 0-23.406-1.348-32.887-4.045s-17.776-6.441-24.887-11.235c-4.148-3.595-7.407-7.49-9.777-11.684s-3.555-9.288-3.555-15.28c0-4.794 1.037-9.288 3.111-13.482s5.185-8.089 9.333-11.684c5.333-4.794 14.517-9.437 27.554-13.931s29.924-9.437 50.663-14.83c20.147-4.794 37.923-9.737 53.33-14.83s27.85-10.336 37.331-15.729c10.073-4.794 18.962-10.786 26.665-17.976s14.221-15.28 19.554-24.268c5.926-9.587 10.221-19.923 12.888-31.009s4-23.219 4-36.402c0-12.583-1.63-24.567-4.889-35.952s-8.148-22.17-14.666-32.357c-7.111-10.786-15.258-20.073-24.443-27.863s-19.999-14.381-32.442-19.774c-12.444-4.794-26.22-8.539-41.33-11.235s-31.553-4.045-49.33-4.045c-26.665 0-50.219 3.146-70.662 9.437s-37.775 15.429-51.996 27.414c-14.221 12.583-25.48 27.863-33.775 45.839s-13.925 38.948-16.888 62.916z" />
<glyph unicode="&#xe910;" glyph-name="task-alt" horiz-adv-x="887" d="M227.736 561.778c10.565-14.791 25.826-22.756 42.26-23.893h2.348c15.261 0 30.521 7.964 42.26 20.48l78.651 95.573c9.391 12.516 8.217 29.582-4.696 39.822-11.739 9.102-30.521 6.827-41.086-4.551l-75.129-91.022-23.478 34.133c-8.217 12.516-27 15.929-39.913 7.964-12.913-9.102-16.435-26.169-8.217-38.684l27-39.822zM667.948 632.32h-212.475c-16.435 0-29.347-12.516-29.347-28.444s12.913-28.444 29.347-28.444h213.649c16.435 0 29.347 12.516 29.347 28.444s-14.087 28.444-30.521 28.444zM227.736 351.289c10.565-14.791 25.826-22.756 42.26-23.893h2.348c15.261 0 30.521 7.964 42.26 20.48l78.651 95.573c9.391 12.516 8.217 29.582-4.696 39.822-11.739 9.102-30.521 6.827-41.086-4.551l-75.129-91.022-23.478 34.133c-8.217 12.516-27 15.929-39.913 7.964-12.913-9.102-16.435-26.169-8.217-38.684l27-39.822zM667.948 421.831h-212.475c-16.435 0-29.347-12.516-29.347-28.444s12.913-28.444 29.347-28.444h213.649c16.435 0 29.347 12.516 29.347 28.444-1.174 15.929-14.087 28.444-30.521 28.444zM388.56 272.782c-11.739 9.102-30.521 6.827-41.086-4.551l-75.129-91.022-23.478 34.133c-5.869 7.964-14.087 12.516-23.478 12.516-5.869 0-11.739-1.138-16.435-4.551-5.869-4.551-10.565-10.24-11.739-18.204-1.174-6.827 0-14.791 4.696-21.618l27-38.684c10.565-14.791 25.826-23.893 42.26-23.893h2.348c15.261 0 30.521 7.964 42.26 20.48l78.651 95.573c4.696 5.689 7.043 13.653 5.869 20.48-2.348 7.964-5.869 14.791-11.739 19.342zM667.948 212.48h-212.475c-16.435 0-29.347-12.516-29.347-28.444s12.913-28.444 29.347-28.444h213.649c16.435 0 29.347 12.516 29.347 28.444s-14.087 28.444-30.521 28.444zM741.903 879.218h-27c-5.869 45.511-46.956 80.782-95.086 80.782h-309.909c-48.13 0-88.042-35.271-95.086-80.782h-27c-77.477 0-139.694-60.302-139.694-135.396v-672.427c0-75.093 62.217-135.396 139.694-135.396h555.254c77.477 0 139.694 60.302 139.694 135.396v672.427c-1.174 75.093-63.39 135.396-140.868 135.396zM272.344 867.84c0 20.48 16.435 36.409 37.565 36.409h311.083c21.13 0 37.565-15.929 37.565-36.409v-32.996c0-20.48-16.435-36.409-37.565-36.409h-311.083c-21.13 0-37.565 15.929-37.565 36.409v32.996zM824.076 71.396c0-44.373-36.391-79.644-82.173-79.644h-554.080c-45.782 0-82.173 35.271-82.173 79.644v672.427c0 44.373 36.391 79.644 82.173 79.644h27c5.869-45.511 46.956-80.782 95.086-80.782h311.083c48.13 0 88.042 35.271 95.086 80.782h27c45.782 0 82.173-35.271 82.173-79.644v-672.427h-1.174z" />
<glyph unicode="&#xe911;" glyph-name="redistributed" d="M757.528 61.197l-271.113 269.285h80.052c14.805 0 27.584 6.069 36.409 15.050 0.386 0.388 0.868 0.485 1.254 0.825l49.381 50.442 220.507-219.040 74.849 74.896c6.663 6.629 16.52 8.581 24.78 5.494 8.579-3.405 14.284-11.577 13.873-20.839l-3.194-257.155c-0.183-12.576-10.405-22.792-23-23.019l-258.428-4.722c-6.343-0.363-11.865 2.043-16.109 6.265-2.008 1.952-3.742 4.722-4.929 7.4-3.194 8.263-1.323 18.115 5.339 24.744l70.329 70.373zM757.729 830.887l-84.038 83.986c-7.733 7.72-10.011 19.273-6.409 28.91 3.973 9.956 13.507 16.611 24.313 16.185l300.014-3.78c14.672-0.16 26.59-12.086 26.855-26.833l5.509-301.503c0.424-7.347-2.384-13.789-7.31-18.741-2.278-2.289-5.509-4.313-8.634-5.75-9.64-3.727-21.134-1.544-28.868 6.229l-98.103 98.043-303.517-307.695c-10.45-10.617-24.413-15.704-38.224-15.223-0.57-0.016-1.143-0.024-1.718-0.024h-486.4c-28.262 0-51.2 19.507-51.2 43.571v79.36c0 24.115 22.938 43.622 51.2 43.622h430.76l275.77 279.642z" />
<glyph unicode="&#xe912;" glyph-name="bg-features" d="M512-64c-70.456 0-136.807 13.496-199.054 40.488s-116.628 63.722-163.142 110.19c-46.515 46.468-83.11 100.623-109.788 162.466s-40.016 128.299-40.016 199.367c0 70.385 13.339 136.67 40.016 198.855s63.273 116.34 109.788 162.466c46.515 46.126 100.895 82.685 163.142 109.678s128.598 40.488 199.054 40.488c70.456 0 136.807-13.496 199.054-40.488s116.628-63.551 163.142-109.678c46.515-46.126 83.11-100.281 109.788-162.466s40.016-128.469 40.016-198.855c0-71.069-13.339-137.524-40.016-199.367s-63.273-115.998-109.788-162.466c-46.515-46.468-100.895-83.198-163.142-110.19s-128.598-40.488-199.054-40.488z" />
<glyph unicode="&#xe913;" glyph-name="features" d="M512-28.16c65.598 0 127.093 12.508 184.796 37.53 58.15 25.216 108.767 59.404 152.071 102.664 43.285 43.241 77.318 93.604 102.209 151.307 24.716 57.297 37.085 118.919 37.085 185.172 0 65.576-12.371 127.050-37.113 184.725-24.877 57.987-58.87 108.292-102.087 151.148-43.32 42.959-93.971 77.010-152.165 102.245-57.703 25.022-119.198 37.53-184.796 37.53s-127.093-12.508-184.796-37.53c-58.194-25.235-108.844-59.286-152.165-102.245-43.217-42.856-77.21-93.161-102.087-151.148-24.742-57.674-37.113-119.149-37.113-184.725 0-66.252 12.369-127.875 37.085-185.172 24.891-57.703 58.924-108.066 102.209-151.307 43.303-43.26 93.921-77.448 152.071-102.664 57.703-25.022 119.198-37.53 184.796-37.53zM512-64c-70.456 0-136.807 13.496-199.054 40.488s-116.628 63.722-163.142 110.19c-46.515 46.468-83.11 100.623-109.788 162.466s-40.016 128.299-40.016 199.367c0 70.385 13.339 136.67 40.016 198.855s63.273 116.34 109.788 162.466c46.515 46.126 100.895 82.685 163.142 109.678s128.598 40.488 199.054 40.488c70.456 0 136.807-13.496 199.054-40.488s116.628-63.551 163.142-109.678c46.515-46.126 83.11-100.281 109.788-162.466s40.016-128.469 40.016-198.855c0-71.069-13.339-137.524-40.016-199.367s-63.273-115.998-109.788-162.466c-46.515-46.468-100.895-83.198-163.142-110.19s-128.598-40.488-199.054-40.488zM323.657 667.429c0-17.086-9.286-32.314-23.771-40.857v-470.229c0-6.314-5.571-11.886-11.886-11.886h-23.771c-6.314 0-11.886 5.571-11.886 11.886v470.229c-14.486 8.543-23.771 23.771-23.771 40.857 0 26.371 21.171 47.543 47.543 47.543s47.543-21.171 47.543-47.543zM870.401 643.658v-283.4c0-13.743-8.543-18.943-19.314-24.514-41.971-22.657-88.4-43.086-137.057-43.086-68.343 0-101.029 52-182 52-59.057 0-121.086-26.743-172.343-54.229-4.086-2.229-7.8-3.343-12.257-3.343-13 0-23.771 10.771-23.771 23.771v275.6c0 8.914 4.457 15.229 11.514 20.429 8.914 5.943 19.686 11.143 29.343 15.971 46.8 23.771 103.629 44.571 156.372 44.571 58.314 0 104-19.314 155.629-43.457 10.4-5.2 21.171-7.057 32.686-7.057 58.314 0 121.086 50.514 137.429 50.514 13 0 23.771-10.771 23.771-23.771z" />
<glyph unicode="&#xe914;" glyph-name="bg-inventions" d="M102.4 960c-56.576 0-102.4-45.875-102.4-102.4v-819.2c0-56.576 45.824-102.4 102.4-102.4h819.2c56.525 0 102.4 45.824 102.4 102.4v819.2c0 56.525-45.875 102.4-102.4 102.4h-819.2z" />
<glyph unicode="&#xe915;" glyph-name="inventions" d="M102.4 924.16c-36.768 0-66.56-29.824-66.56-66.56v-819.2c0-36.768 29.792-66.56 66.56-66.56h819.2c36.736 0 66.56 29.792 66.56 66.56v819.2c0 36.736-29.824 66.56-66.56 66.56h-819.2zM102.4 960h819.2c56.512 0 102.4-45.888 102.4-102.4v-819.2c0-56.576-45.888-102.4-102.4-102.4h-819.2c-56.576 0-102.4 45.824-102.4 102.4v819.2c0 56.512 45.824 102.4 102.4 102.4zM716.48 488.384c-34.496-37.984-79.968-91.488-84.032-144.992h-240.992c-4 53.504-49.472 107.008-83.968 144.992s-51.52 82.496-51.52 133.984c0 136 129.472 224 256 224s256-88 256-224c0-51.52-16.992-96-51.52-133.984h0.032zM641.696 195.584c0-15.040-7.744-28.736-20.544-36.928 3.648-6.4 5.952-14.176 5.952-21.44 0-29.632-23.232-43.84-49.76-43.84-11.84-26.464-38.304-43.776-67.008-43.776-28.768 0-55.232 17.312-67.136 43.776-26.432 0-49.728 14.176-49.728 43.84 0 7.264 2.24 15.040 5.952 21.44-12.8 8.192-20.544 21.856-20.544 36.928 0 10.944 4.096 21.44 11.36 29.248-7.264 7.744-11.36 18.24-11.36 29.184 0 10.752 4.16 21.248 11.36 29.184h240.064c7.168-7.936 11.36-18.432 11.36-29.184 0-10.944-4.096-21.44-11.424-29.184 7.328-7.776 11.424-18.272 11.424-29.248h0.032z" />
<glyph unicode="&#xe916;" glyph-name="redistributed-top" d="M757.728 830.88l-84.032 84c-7.744 7.712-10.016 19.264-6.4 28.896 3.968 9.952 13.504 16.608 24.32 16.192l300-3.776c14.688-0.16 26.592-12.096 26.848-26.848l5.504-301.504c0.416-7.36-2.4-13.792-7.296-18.752-2.272-2.304-5.504-4.32-8.64-5.76-9.632-3.712-21.12-1.536-28.864 6.24l-98.112 98.048-303.52-307.68c-10.464-10.624-24.416-15.712-38.24-15.232-0.576 0-1.152-0.032-1.728-0.032h-486.4c-28.256 0-51.2 19.52-51.2 43.584v79.36c0 24.128 22.944 43.616 51.2 43.616h430.752l275.808 279.648z" />
<glyph unicode="&#xe917;" glyph-name="redistributed-bottom" d="M757.536 61.184l-271.104 269.28h80.064c14.816 0 27.584 6.080 36.416 15.040 0.384 0.384 0.864 0.48 1.248 0.832l49.376 50.432 220.512-219.040 74.848 74.88c6.656 6.624 16.512 8.576 24.768 5.504 8.576-3.392 14.272-11.584 13.888-20.832l-3.2-257.152c-0.192-12.576-10.4-22.784-23.008-23.008l-258.432-4.736c-6.336-0.352-11.872 2.048-16.096 6.272-2.016 1.952-3.744 4.736-4.928 7.392-3.2 8.256-1.312 18.112 5.344 24.736l70.304 70.4z" />
<glyph unicode="&#xe919;" glyph-name="back" horiz-adv-x="1280" d="M1184 960c53.019 0 96-42.981 96-96v-832c0-53.019-42.981-96-96-96s-96 42.981-96 96v832c0 53.019 42.981 96 96 96zM448 192h384c35.346 0 64 28.654 64 64v320c0 35.346-28.654 64-64 64h-384v145.752c0 18.777-11.204 35.388-27.311 42.61-16.807 7.222-36.414 3.611-49.019-10.111l-358.54-369.766c-17.507-18.055-17.507-46.943 0-64.998l358.54-369.766c8.403-9.389 19.608-13.722 31.512-13.722 5.602 0 11.905 1.444 17.507 3.611 16.106 7.222 27.311 23.833 27.311 42.61v145.779z" />
<glyph unicode="&#xe91a;" glyph-name="comment-lines" horiz-adv-x="1138" d="M809.973 793.651c-74.921 29.63-155.555 44.444-241.905 44.444s-167.090-14.709-242.222-44.127c-75.133-29.418-134.815-69.1-179.048-119.048s-66.349-103.915-66.349-161.905c0-47.408 15.132-92.592 45.397-135.556s72.91-80.106 127.937-111.429l55.238-31.746-17.143-60.952c-10.159-38.519-24.973-74.92-44.444-109.206 64.339 26.667 122.539 62.857 174.603 108.571l27.302 24.127 36.19-3.81c29.206-3.386 56.719-5.079 82.54-5.079 86.35 0 167.090 14.709 242.222 44.127s134.815 69.1 179.048 119.048c44.233 49.947 66.349 103.915 66.349 161.905s-22.116 111.957-66.349 161.905c-44.233 49.947-104.021 89.524-179.365 118.73zM1060.767 716.825c50.794-62.223 76.19-130.158 76.19-203.81s-25.397-141.693-76.19-204.127c-50.794-62.434-119.788-111.746-206.984-147.937s-182.433-54.286-285.714-54.286c-29.63 0-60.317 1.693-92.063 5.079-83.81-74.074-181.163-125.291-292.063-153.651-20.741-5.926-44.868-10.582-72.381-13.968h-3.175c-6.349 0-12.063 2.222-17.143 6.667s-8.466 10.265-10.159 17.46v0.635c-1.27 1.693-1.376 4.233-0.317 7.619s1.481 5.503 1.27 6.349c-0.212 0.847 0.741 2.857 2.857 6.032l3.81 5.714c0.423 0.635 1.905 2.434 4.444 5.397s4.233 4.868 5.079 5.714c2.963 3.386 9.524 10.688 19.683 21.905s17.46 19.259 21.905 24.127c4.444 4.868 11.005 13.227 19.683 25.079s15.556 22.645 20.635 32.381c5.079 9.735 10.794 22.222 17.143 37.46s11.852 31.323 16.508 48.254c-66.455 37.672-118.836 84.233-157.143 139.683s-57.46 114.92-57.46 178.413c0 73.651 25.397 141.693 76.19 204.127s119.788 111.746 206.984 147.937c87.196 36.191 182.433 54.286 285.714 54.286s198.518-18.095 285.714-54.286c87.196-36.191 156.19-85.608 206.984-148.254zM314.413 561.778c-15.709 0-28.444 12.735-28.444 28.444s12.735 28.444 28.444 28.444h539.427c15.709 0 28.444-12.735 28.444-28.444s-12.735-28.444-28.444-28.444h-539.427zM314.413 391.111c-15.709 0-28.444 12.735-28.444 28.444s12.735 28.444 28.444 28.444h539.427c15.709 0 28.444-12.735 28.444-28.444s-12.735-28.444-28.444-28.444h-539.427z" />
<glyph unicode="&#xe91b;" glyph-name="claims" horiz-adv-x="887" d="M682.667 516.267v-136.533h136.533v136.533h-136.533zM614.4 584.533h273.067v-273.067h-273.067v273.067zM682.667 140.8v-136.533h136.533v136.533h-136.533zM614.4 209.067h273.067v-273.067h-273.067v273.067zM170.667 652.8h68.267v-420.091c0-105.053 20.721-126.042 119.757-126.042h289.843v-68.267h-289.843c-136.937 0-188.024 51.749-188.024 194.309v420.091zM102.4 891.733v-204.8h204.8v204.8h-204.8zM34.133 960h341.333v-341.333h-341.333v341.333zM238.933 413.867v68.267h443.733v-68.267z" />
<glyph unicode="&#xe91c;" glyph-name="task" horiz-adv-x="904" d="M264.605 125.311c0 10.756 3.765 19.899 11.294 27.429l83.899 83.899c7.529 7.529 16.672 11.294 27.429 11.294 11.294 0 20.975-4.302 29.042-12.908-0.807-0.807-3.361-3.294-7.664-7.462s-7.193-7.059-8.672-8.672c-1.479-1.613-3.496-4.168-6.050-7.664s-4.303-6.924-5.244-10.286c-0.941-3.361-1.412-7.059-1.412-11.092 0-10.756 3.765-19.899 11.294-27.429s16.672-11.294 27.429-11.294c4.034 0 7.731 0.471 11.092 1.412s6.79 2.689 10.286 5.244c3.496 2.555 6.050 4.571 7.664 6.050s4.504 4.37 8.672 8.672c4.168 4.303 6.655 6.857 7.462 7.664 8.874-8.336 13.311-18.151 13.311-29.445 0-10.756-3.765-19.899-11.294-27.429l-83.092-83.496c-7.261-7.261-16.403-10.891-27.429-10.891-10.756 0-19.899 3.496-27.429 10.487l-59.294 58.891c-7.529 7.529-11.294 16.538-11.294 27.025zM548.168 409.681c0 10.756 3.765 19.899 11.294 27.429l83.092 83.496c7.529 7.529 16.672 11.294 27.429 11.294 10.487 0 19.63-3.63 27.429-10.891l59.294-58.891c7.529-7.529 11.294-16.538 11.294-27.025 0-10.756-3.765-19.899-11.294-27.429l-83.899-83.899c-7.261-7.261-16.403-10.891-27.429-10.891-11.294 0-20.975 4.168-29.042 12.504 0.807 0.807 3.361 3.294 7.664 7.462s7.193 7.059 8.672 8.672c1.479 1.613 3.496 4.168 6.050 7.664s4.303 6.924 5.244 10.286c0.941 3.361 1.412 7.059 1.412 11.092 0 10.756-3.765 19.899-11.294 27.429s-16.672 11.294-27.429 11.294c-4.034 0-7.731-0.471-11.092-1.412s-6.79-2.689-10.286-5.244c-3.496-2.555-6.050-4.571-7.664-6.050s-4.504-4.37-8.672-8.672c-4.168-4.303-6.655-6.857-7.462-7.664-8.874 8.336-13.311 18.151-13.311 29.445zM221.042 207.597c-22.588-22.588-33.882-50.017-33.882-82.286s11.428-59.563 34.286-81.882l59.294-58.891c22.319-22.319 49.613-33.479 81.882-33.479 32.538 0 59.966 11.428 82.286 34.286l83.092 83.496c22.319 22.319 33.479 49.613 33.479 81.882 0 33.076-11.832 61.176-35.496 84.303l35.496 35.496c23.126-23.664 51.092-35.496 83.899-35.496 32.269 0 59.697 11.294 82.286 33.882l83.899 83.899c22.588 22.588 33.882 50.017 33.882 82.286s-11.428 59.563-34.286 81.882l-59.294 58.891c-22.319 22.319-49.613 33.479-81.882 33.479-32.538 0-59.966-11.428-82.286-34.286l-83.092-83.496c-22.319-22.319-33.479-49.613-33.479-81.882 0-33.076 11.832-61.176 35.496-84.303l-35.496-35.496c-23.126 23.664-51.092 35.496-83.899 35.496-32.269 0-59.697-11.294-82.286-33.882l-83.899-83.899zM542.15 686.183c0-4.858-1.943-9.716-5.441-13.214l-167.122-167.122c-3.498-3.498-8.356-5.441-13.214-5.441s-9.716 1.943-13.214 5.441l-96.776 96.776c-3.498 3.498-5.441 8.356-5.441 13.214s1.943 9.716 5.441 13.214l17.283 14.971c3.498 3.498 8.356 5.441 13.214 5.441s9.716-1.943 13.214-5.441l70.347-66.977 135.441 136.574c3.498 3.498 8.356 5.441 13.214 5.441s9.716-1.943 13.214-5.441l14.398-14.221c3.498-3.498 5.441-8.356 5.441-13.214zM783.059 843.643v-116.357h-71.196v116.357c0 12.381-8.347 23.255-17.783 23.255h-605.101c-9.468 0-17.783-10.915-17.783-23.255v-791.286c0-12.381 8.347-23.255 17.783-23.255h88.979v-93.102h-88.979c-48.928 0-88.979 52.375-88.979 116.357v791.286c0 63.982 40.051 116.357 88.979 116.357h605.101c48.928 0 88.979-52.375 88.979-116.357z" />
<glyph unicode="&#xe91d;" glyph-name="comment" horiz-adv-x="1109" d="M790.524 802.076c-73.048 28.889-151.666 43.333-235.857 43.333s-162.912-14.341-236.167-43.024c-73.254-28.683-131.444-67.373-174.571-116.071s-64.69-101.317-64.69-157.857c0-46.222 14.754-90.278 44.262-132.167s71.087-78.103 124.738-108.643l53.857-30.952-16.714-59.429c-9.905-37.556-24.349-73.047-43.333-106.476 62.73 26 119.476 61.285 170.238 105.857l26.619 23.524 35.286-3.714c28.476-3.302 55.301-4.952 80.476-4.952 84.191 0 162.912 14.341 236.167 43.024s131.444 67.373 174.571 116.071c43.127 48.699 64.69 101.317 64.69 157.857s-21.563 109.158-64.69 157.857c-43.127 48.699-101.42 87.286-174.881 115.762zM1035.048 727.171c49.524-60.667 74.286-126.904 74.286-198.714s-24.762-138.15-74.286-199.024c-49.524-60.873-116.793-108.952-201.81-144.238s-177.873-52.929-278.571-52.929c-28.889 0-58.809 1.651-89.762 4.952-81.715-72.223-176.634-122.159-284.762-149.81-20.222-5.778-43.746-10.317-70.571-13.619h-3.095c-6.191 0-11.762 2.167-16.714 6.5s-8.254 10.008-9.905 17.024v0.619c-1.238 1.651-1.341 4.127-0.31 7.429s1.444 5.365 1.238 6.19c-0.206 0.825 0.722 2.786 2.786 5.881l3.714 5.571c0.413 0.619 1.857 2.373 4.333 5.262s4.127 4.746 4.952 5.571c2.889 3.302 9.286 10.421 19.19 21.357s17.024 18.778 21.357 23.524c4.333 4.746 10.73 12.897 19.19 24.452s15.167 22.079 20.119 31.571c4.952 9.492 10.524 21.667 16.714 36.524s11.556 30.54 16.095 47.048c-64.794 36.73-115.865 82.127-153.214 136.19s-56.024 112.047-56.024 173.952c0 71.81 24.762 138.15 74.286 199.024s116.793 108.952 201.81 144.238c85.016 35.286 177.873 52.929 278.571 52.929s193.555-17.643 278.571-52.929c85.016-35.286 152.285-83.468 201.81-144.548z" />
<glyph unicode="&#xe91e;" glyph-name="refund" d="M106.75 784.717c-18.551-21.341-16.29-53.68 5.051-72.231s53.68-16.29 72.231 5.051c148.411 170.727 407.124 188.818 577.851 40.407s188.818-407.124 40.407-577.851c-148.411-170.727-407.124-188.818-577.851-40.407-21.341 18.551-53.68 16.29-72.231-5.051s-16.29-53.68 5.051-72.231c213.409-185.514 536.8-162.9 722.314 50.509s162.9 536.8-50.509 722.314c-213.409 185.514-536.8 162.9-722.314-50.509zM11.031 596.562l250.284 53.794-231.847 201.541zM646.4 283.6l14-63.6c0.8-3.2 0.4-6.2-1.2-9s-3.867-4.733-6.8-5.8l-2-0.4c-1.067-0.533-2.467-1-4.2-1.4s-3.867-1-6.4-1.8c-2.533-0.8-5.4-1.533-8.6-2.2s-6.6-1.333-10.2-2c-3.6-0.667-7.6-1.333-12-2s-8.867-1.267-13.4-1.8c-4.533-0.533-9.4-0.933-14.6-1.2s-10.333-0.4-15.4-0.4c-62.4 0-116.933 17.4-163.6 52.2s-78.4 81.666-95.2 140.6h-38c-3.467 0-6.467 1.267-9 3.8s-3.8 5.533-3.8 9v45.2c0 3.467 1.267 6.467 3.8 9s5.533 3.8 9 3.8h26.4c-0.533 15.2-0.4 29.2 0.4 42h-26.8c-3.733 0-6.8 1.2-9.2 3.6s-3.6 5.467-3.6 9.2v45.6c0 3.733 1.2 6.8 3.6 9.2s5.467 3.6 9.2 3.6h39.2c17.867 56 50.333 101.066 97.4 135.2s100.466 51.2 160.2 51.2c27.2 0 53.067-3.067 77.6-9.2 2.933-0.8 5.6-2.8 8-6 1.6-2.933 2-6.133 1.2-9.6l-17.2-63.6c-0.8-3.467-2.667-6.067-5.6-7.8s-6.133-2.067-9.6-1l-1.6 0.4c-1.067 0.267-2.6 0.6-4.6 1l-7 1.4c-2.667 0.533-5.667 1-9 1.4s-6.8 0.8-10.4 1.2c-3.6 0.4-7.467 0.733-11.6 1s-8.067 0.4-11.8 0.4c-33.6 0-63.733-8.533-90.4-25.6s-46.667-40.533-60-70.4h187.2c4.267 0 7.6-1.6 10-4.8 2.667-3.2 3.6-6.667 2.8-10.4l-9.6-45.6c-1.333-6.933-5.6-10.4-12.8-10.4h-195.2c-0.8-9.867-0.8-23.867 0-42h183.6c4 0 7.333-1.6 10-4.8 2.4-3.2 3.2-6.8 2.4-10.8l-9.6-44.8c-0.533-2.933-2-5.4-4.4-7.4s-5.067-3-8-3h-154.8c12.8-31.2 32.733-55.933 59.8-74.2s57.533-27.4 91.4-27.4c4.8 0 9.6 0.2 14.4 0.6s9.267 0.867 13.4 1.4c4.133 0.533 8.067 1.133 11.8 1.8s7 1.333 9.8 2c2.8 0.667 5.267 1.267 7.4 1.8l4.8 1.2 2 0.8c3.467 1.333 6.933 1.067 10.4-0.8 3.2-1.867 5.2-4.667 6-8.4z" />
<glyph unicode="&#xe91f;" glyph-name="PageAnnotations" d="M496 160h-192c-26.4 0-48 21.6-48 48v0c0 26.4 21.6 48 48 48h192c26.4 0 48-21.6 48-48v0c0-26.4-21.6-48-48-48zM592 640h-288c-26.4 0-48 21.6-48 48v0c0 26.4 21.6 48 48 48h288c26.4 0 48-21.6 48-48v0c0-26.4-21.6-48-48-48zM592 480h-288c-26.4 0-48 21.6-48 48v0c0 26.4 21.6 48 48 48h288c26.4 0 48-21.6 48-48v0c0-26.4-21.6-48-48-48zM592 320h-288c-26.4 0-48 21.6-48 48v0c0 26.4 21.6 48 48 48h288c26.4 0 48-21.6 48-48v0c0-26.4-21.6-48-48-48zM880 640h-32c-26.4 0-48 21.6-48 48v0c0 26.4 21.6 48 48 48h32c26.4 0 48-21.6 48-48v0c0-26.4-21.6-48-48-48zM880 480h-32c-26.4 0-48 21.6-48 48v0c0 26.4 21.6 48 48 48h32c26.4 0 48-21.6 48-48v0c0-26.4-21.6-48-48-48zM880 320h-32c-26.4 0-48 21.6-48 48v0c0 26.4 21.6 48 48 48h32c26.4 0 48-21.6 48-48v0c0-26.4-21.6-48-48-48zM704 816c8.8 0 16-7.2 16-16v-704c0-8.8-7.2-16-16-16h-512c-8.8 0-16 7.2-16 16v704c0 8.8 7.2 16 16 16h512zM704 864h-512c-35.2 0-64-28.8-64-64v-704c0-35.2 28.8-64 64-64h512c35.2 0 64 28.8 64 64v704c0 35.2-28.8 64-64 64v0z" />
<glyph unicode="&#xe92d;" glyph-name="assigned-default" horiz-adv-x="1812" d="M1536 723.692c152.261 0 275.692-123.432 275.692-275.692s-123.432-275.692-275.692-275.692c-152.261 0-275.692 123.432-275.692 275.692v0c0 152.261 123.432 275.692 275.692 275.692v0zM551.385 172.308h-472.615c-43.503 0-78.769 35.266-78.769 78.769v0 393.846c0 43.503 35.266 78.769 78.769 78.769v0h472.615v179.594c0.18 23.024 13.863 42.809 33.513 51.84l0.358 0.147c6.358 2.929 13.796 4.637 21.633 4.637 15.44 0 29.332-6.631 38.983-17.2l0.037-0.041 440.32-455.286c9.666-10.264 15.605-24.13 15.605-39.385s-5.94-29.121-15.633-39.414l0.027 0.029-441.108-455.286c-9.292-10.645-22.886-17.332-38.041-17.332-0.195 0-0.391 0.001-0.586 0.003h0.030c-7.748 0.34-15.010 2.046-21.675 4.88l0.407-0.154c-20.008 9.179-33.691 28.964-33.871 51.964v0.023z" />
<glyph unicode="&#xe92e;" glyph-name="forward" horiz-adv-x="1417" d="M551.385 172.308h-472.615c-43.503 0-78.769 35.266-78.769 78.769v0 393.846c0 43.503 35.266 78.769 78.769 78.769v0h472.615v179.594c0.18 23.024 13.863 42.809 33.513 51.84l0.358 0.147c6.358 2.929 13.796 4.637 21.633 4.637 15.44 0 29.332-6.631 38.983-17.2l0.037-0.041 440.32-455.286c9.666-10.264 15.605-24.13 15.605-39.385s-5.94-29.121-15.633-39.414l0.027 0.029-441.108-455.286c-9.292-10.645-22.886-17.332-38.041-17.332-0.195 0-0.391 0.001-0.586 0.003h0.030c-7.748 0.34-15.010 2.046-21.675 4.88l0.407-0.154c-20.008 9.179-33.691 28.964-33.871 51.964v0.023zM1245.342 408.615c9.666 10.264 15.605 24.13 15.605 39.385s-5.94 29.121-15.633 39.414l0.027-0.029-364.702 384.394c-8.664 9.27-14.031 21.718-14.178 35.417v0.029c-0.004 0.236-0.006 0.515-0.006 0.794 0 28.437 22.832 51.542 51.165 51.981l0.041 0.001c0.115 0.001 0.25 0.001 0.386 0.001 14.021 0 26.706-5.724 35.843-14.963l0.004-0.005 447.409-457.649c9.666-10.264 15.605-24.13 15.605-39.385s-5.94-29.121-15.633-39.414l0.027 0.029-446.622-456.862c-9.172-9.551-21.983-15.548-36.196-15.753h-0.038c-28.374 0.44-51.206 23.545-51.206 51.982 0 0.279 0.002 0.558 0.007 0.836l-0.001-0.042c0.148 13.729 5.515 26.176 14.206 35.476l-0.028-0.030z" />
<glyph unicode="&#xe92f;" glyph-name="pulled-back" horiz-adv-x="1140" d="M379.889 222.901c-11.815 0.171-22.437 5.134-30.038 13.028l-0.013 0.013-336.23 327.158c-8.285 8.476-13.397 20.084-13.397 32.886s5.112 24.41 13.406 32.895l-0.009-0.009 322.055 318.653c7.611 7.703 18.175 12.474 29.853 12.474 0.070 0 0.139 0 0.209-0.001h-0.011c23.556-0.318 42.529-19.487 42.529-43.088 0-0.201-0.001-0.401-0.004-0.601v0.030c0-0.039 0-0.085 0-0.131 0-11.318-4.307-21.631-11.372-29.388l0.031 0.035-263.087-267.056c-6.281-6.432-10.156-15.237-10.156-24.948s3.875-18.516 10.162-24.955l-0.007 0.007 277.829-274.994c7.017-7.779 11.317-18.127 11.34-29.479v-0.005c-0.32-23.554-19.489-42.525-43.088-42.525-0.001 0-0.003 0-0.004 0v0zM1139.668 284.704c0-132.678-100.926-327.725-105.462-336.23-3.211-6.443-9.752-10.791-17.309-10.791-0.294 0-0.586 0.007-0.876 0.020l0.041-0.001h-5.67c-8.64 2.726-14.796 10.667-14.796 20.047 0 0.527 0.019 1.050 0.058 1.568l-0.004-0.069c18.711 174.069-3.402 289.169-68.040 360.611-56.7 60.669-143.451 92.988-283.499 103.761v-159.894c-0.235-16.691-10.314-30.972-24.683-37.318l-0.265-0.104c-4.679-1.927-10.1-3.153-15.776-3.399l-0.1-0.003c-0.31-0.009-0.674-0.014-1.040-0.014-10.956 0-20.844 4.57-27.864 11.907l-0.014 0.014-329.993 328.292c-7.216 7.273-11.675 17.291-11.675 28.35s4.459 21.077 11.678 28.353l-0.003-0.003 329.993 327.725c7.426 7.636 17.799 12.373 29.277 12.373 5.812 0 11.341-1.215 16.345-3.404l-0.263 0.102c14.634-6.45 24.713-20.73 24.948-37.392v-170.13c178.038-11.907 305.045-56.7 386.126-141.183 68.262-78.271 109.884-181.321 109.884-294.093 0-10.637-0.37-21.187-1.099-31.639l0.079 1.408z" />
<glyph unicode="&#xf002;" glyph-name="search" horiz-adv-x="951" d="M658.286 484.571c0 141.143-114.857 256-256 256s-256-114.857-256-256 114.857-256 256-256 256 114.857 256 256zM950.857 9.143c0-40-33.143-73.143-73.143-73.143-19.429 0-38.286 8-51.429 21.714l-196 195.429c-66.857-46.286-146.857-70.857-228-70.857-222.286 0-402.286 180-402.286 402.286s180 402.286 402.286 402.286 402.286-180 402.286-402.286c0-81.143-24.571-161.143-70.857-228l196-196c13.143-13.143 21.143-32 21.143-51.429z" />
<glyph unicode="&#xf003;" glyph-name="envelope-o" d="M950.857 100.571v438.857c-12-13.714-25.143-26.286-39.429-37.714-81.714-62.857-164-126.857-243.429-193.143-42.857-36-96-80-155.429-80h-1.143c-59.429 0-112.571 44-155.429 80-79.429 66.286-161.714 130.286-243.429 193.143-14.286 11.429-27.429 24-39.429 37.714v-438.857c0-9.714 8.571-18.286 18.286-18.286h841.143c9.714 0 18.286 8.571 18.286 18.286zM950.857 701.143c0 14.286 3.429 39.429-18.286 39.429h-841.143c-9.714 0-18.286-8.571-18.286-18.286 0-65.143 32.571-121.714 84-162.286 76.571-60 153.143-120.571 229.143-181.143 30.286-24.571 85.143-77.143 125.143-77.143h1.143c40 0 94.857 52.571 125.143 77.143 76 60.571 152.571 121.143 229.143 181.143 37.143 29.143 84 92.571 84 141.143zM1024 722.286v-621.714c0-50.286-41.143-91.429-91.429-91.429h-841.143c-50.286 0-91.429 41.143-91.429 91.429v621.714c0 50.286 41.143 91.429 91.429 91.429h841.143c50.286 0 91.429-41.143 91.429-91.429z" />
<glyph unicode="&#xf005;" glyph-name="star" horiz-adv-x="951" d="M950.857 590.286c0-10.286-7.429-20-14.857-27.429l-207.429-202.286 49.143-285.714c0.571-4 0.571-7.429 0.571-11.429 0-14.857-6.857-28.571-23.429-28.571-8 0-16 2.857-22.857 6.857l-256.571 134.857-256.571-134.857c-7.429-4-14.857-6.857-22.857-6.857-16.571 0-24 13.714-24 28.571 0 4 0.571 7.429 1.143 11.429l49.143 285.714-208 202.286c-6.857 7.429-14.286 17.143-14.286 27.429 0 17.143 17.714 24 32 26.286l286.857 41.714 128.571 260c5.143 10.857 14.857 23.429 28 23.429s22.857-12.571 28-23.429l128.571-260 286.857-41.714c13.714-2.286 32-9.143 32-26.286z" />
<glyph unicode="&#xf006;" glyph-name="star-o" horiz-adv-x="951" d="M649.714 386.286l174.857 169.714-241.143 35.429-108 218.286-108-218.286-241.143-35.429 174.857-169.714-41.714-240.571 216 113.714 215.429-113.714zM950.857 590.286c0-10.286-7.429-20-14.857-27.429l-207.429-202.286 49.143-285.714c0.571-4 0.571-7.429 0.571-11.429 0-15.429-6.857-28.571-23.429-28.571-8 0-16 2.857-22.857 6.857l-256.571 134.857-256.571-134.857c-7.429-4-14.857-6.857-22.857-6.857-16.571 0-24 13.714-24 28.571 0 4 0.571 7.429 1.143 11.429l49.143 285.714-208 202.286c-6.857 7.429-14.286 17.143-14.286 27.429 0 17.143 17.714 24 32 26.286l286.857 41.714 128.571 260c5.143 10.857 14.857 23.429 28 23.429s22.857-12.571 28-23.429l128.571-260 286.857-41.714c13.714-2.286 32-9.143 32-26.286z" />
<glyph unicode="&#xf007;" glyph-name="user" horiz-adv-x="731" d="M731.429 160.571c0-83.429-54.857-151.429-121.714-151.429h-488c-66.857 0-121.714 68-121.714 151.429 0 150.286 37.143 324 186.857 324 46.286-45.143 109.143-73.143 178.857-73.143s132.571 28 178.857 73.143c149.714 0 186.857-173.714 186.857-324zM585.143 667.429c0-121.143-98.286-219.429-219.429-219.429s-219.429 98.286-219.429 219.429 98.286 219.429 219.429 219.429 219.429-98.286 219.429-219.429z" />
<glyph unicode="&#xf00a;" glyph-name="Modules" d="M292.571 246.857v-109.714c0-30.286-24.571-54.857-54.857-54.857h-182.857c-30.286 0-54.857 24.571-54.857 54.857v109.714c0 30.286 24.571 54.857 54.857 54.857h182.857c30.286 0 54.857-24.571 54.857-54.857zM292.571 539.429v-109.714c0-30.286-24.571-54.857-54.857-54.857h-182.857c-30.286 0-54.857 24.571-54.857 54.857v109.714c0 30.286 24.571 54.857 54.857 54.857h182.857c30.286 0 54.857-24.571 54.857-54.857zM658.286 246.857v-109.714c0-30.286-24.571-54.857-54.857-54.857h-182.857c-30.286 0-54.857 24.571-54.857 54.857v109.714c0 30.286 24.571 54.857 54.857 54.857h182.857c30.286 0 54.857-24.571 54.857-54.857zM292.571 832v-109.714c0-30.286-24.571-54.857-54.857-54.857h-182.857c-30.286 0-54.857 24.571-54.857 54.857v109.714c0 30.286 24.571 54.857 54.857 54.857h182.857c30.286 0 54.857-24.571 54.857-54.857zM658.286 539.429v-109.714c0-30.286-24.571-54.857-54.857-54.857h-182.857c-30.286 0-54.857 24.571-54.857 54.857v109.714c0 30.286 24.571 54.857 54.857 54.857h182.857c30.286 0 54.857-24.571 54.857-54.857zM1024 246.857v-109.714c0-30.286-24.571-54.857-54.857-54.857h-182.857c-30.286 0-54.857 24.571-54.857 54.857v109.714c0 30.286 24.571 54.857 54.857 54.857h182.857c30.286 0 54.857-24.571 54.857-54.857zM658.286 832v-109.714c0-30.286-24.571-54.857-54.857-54.857h-182.857c-30.286 0-54.857 24.571-54.857 54.857v109.714c0 30.286 24.571 54.857 54.857 54.857h182.857c30.286 0 54.857-24.571 54.857-54.857zM1024 539.429v-109.714c0-30.286-24.571-54.857-54.857-54.857h-182.857c-30.286 0-54.857 24.571-54.857 54.857v109.714c0 30.286 24.571 54.857 54.857 54.857h182.857c30.286 0 54.857-24.571 54.857-54.857zM1024 832v-109.714c0-30.286-24.571-54.857-54.857-54.857h-182.857c-30.286 0-54.857 24.571-54.857 54.857v109.714c0 30.286 24.571 54.857 54.857 54.857h182.857c30.286 0 54.857-24.571 54.857-54.857z" />
<glyph unicode="&#xf00c;" glyph-name="check" d="M954.857 636.571c0-14.286-5.714-28.571-16-38.857l-491.429-491.429c-10.286-10.286-24.571-16-38.857-16s-28.571 5.714-38.857 16l-284.571 284.571c-10.286 10.286-16 24.571-16 38.857s5.714 28.571 16 38.857l77.714 77.714c10.286 10.286 24.571 16 38.857 16s28.571-5.714 38.857-16l168-168.571 374.857 375.429c10.286 10.286 24.571 16 38.857 16s28.571-5.714 38.857-16l77.714-77.714c10.286-10.286 16-24.571 16-38.857z" />
<glyph unicode="&#xf00d;" glyph-name="close" horiz-adv-x="805" d="M741.714 204.571c0-14.286-5.714-28.571-16-38.857l-77.714-77.714c-10.286-10.286-24.571-16-38.857-16s-28.571 5.714-38.857 16l-168 168-168-168c-10.286-10.286-24.571-16-38.857-16s-28.571 5.714-38.857 16l-77.714 77.714c-10.286 10.286-16 24.571-16 38.857s5.714 28.571 16 38.857l168 168-168 168c-10.286 10.286-16 24.571-16 38.857s5.714 28.571 16 38.857l77.714 77.714c10.286 10.286 24.571 16 38.857 16s28.571-5.714 38.857-16l168-168 168 168c10.286 10.286 24.571 16 38.857 16s28.571-5.714 38.857-16l77.714-77.714c10.286-10.286 16-24.571 16-38.857s-5.714-28.571-16-38.857l-168-168 168-168c10.286-10.286 16-24.571 16-38.857z" />
<glyph unicode="&#xf013;" glyph-name="cog" horiz-adv-x="878" d="M585.143 448c0 80.571-65.714 146.286-146.286 146.286s-146.286-65.714-146.286-146.286 65.714-146.286 146.286-146.286 146.286 65.714 146.286 146.286zM877.714 510.286v-126.857c0-8.571-6.857-18.857-16-20.571l-105.714-16c-6.286-18.286-13.143-35.429-22.286-52 19.429-28 40-53.143 61.143-78.857 3.429-4 5.714-9.143 5.714-14.286s-1.714-9.143-5.143-13.143c-13.714-18.286-90.857-102.286-110.286-102.286-5.143 0-10.286 2.286-14.857 5.143l-78.857 61.714c-16.571-8.571-34.286-16-52-21.714-4-34.857-7.429-72-16.571-106.286-2.286-9.143-10.286-16-20.571-16h-126.857c-10.286 0-19.429 7.429-20.571 17.143l-16 105.143c-17.714 5.714-34.857 12.571-51.429 21.143l-80.571-61.143c-4-3.429-9.143-5.143-14.286-5.143s-10.286 2.286-14.286 6.286c-30.286 27.429-70.286 62.857-94.286 96-2.857 4-4 8.571-4 13.143 0 5.143 1.714 9.143 4.571 13.143 19.429 26.286 40.571 51.429 60 78.286-9.714 18.286-17.714 37.143-23.429 56.571l-104.571 15.429c-9.714 1.714-16.571 10.857-16.571 20.571v126.857c0 8.571 6.857 18.857 15.429 20.571l106.286 16c5.714 18.286 13.143 35.429 22.286 52.571-19.429 27.429-40 53.143-61.143 78.857-3.429 4-5.714 8.571-5.714 13.714s2.286 9.143 5.143 13.143c13.714 18.857 90.857 102.286 110.286 102.286 5.143 0 10.286-2.286 14.857-5.714l78.857-61.143c16.571 8.571 34.286 16 52 21.714 4 34.857 7.429 72 16.571 106.286 2.286 9.143 10.286 16 20.571 16h126.857c10.286 0 19.429-7.429 20.571-17.143l16-105.143c17.714-5.714 34.857-12.571 51.429-21.143l81.143 61.143c3.429 3.429 8.571 5.143 13.714 5.143s10.286-2.286 14.286-5.714c30.286-28 70.286-63.429 94.286-97.143 2.857-3.429 4-8 4-12.571 0-5.143-1.714-9.143-4.571-13.143-19.429-26.286-40.571-51.429-60-78.286 9.714-18.286 17.714-37.143 23.429-56l104.571-16c9.714-1.714 16.571-10.857 16.571-20.571z" />
<glyph unicode="&#xf014;" glyph-name="trash-o" horiz-adv-x="805" d="M292.571 539.429v-329.143c0-10.286-8-18.286-18.286-18.286h-36.571c-10.286 0-18.286 8-18.286 18.286v329.143c0 10.286 8 18.286 18.286 18.286h36.571c10.286 0 18.286-8 18.286-18.286zM438.857 539.429v-329.143c0-10.286-8-18.286-18.286-18.286h-36.571c-10.286 0-18.286 8-18.286 18.286v329.143c0 10.286 8 18.286 18.286 18.286h36.571c10.286 0 18.286-8 18.286-18.286zM585.143 539.429v-329.143c0-10.286-8-18.286-18.286-18.286h-36.571c-10.286 0-18.286 8-18.286 18.286v329.143c0 10.286 8 18.286 18.286 18.286h36.571c10.286 0 18.286-8 18.286-18.286zM658.286 125.714v541.714h-512v-541.714c0-27.429 15.429-43.429 18.286-43.429h475.429c2.857 0 18.286 16 18.286 43.429zM274.286 740.571h256l-27.429 66.857c-1.714 2.286-6.857 5.714-9.714 6.286h-181.143c-3.429-0.571-8-4-9.714-6.286zM804.571 722.286v-36.571c0-10.286-8-18.286-18.286-18.286h-54.857v-541.714c0-62.857-41.143-116.571-91.429-116.571h-475.429c-50.286 0-91.429 51.429-91.429 114.286v544h-54.857c-10.286 0-18.286 8-18.286 18.286v36.571c0 10.286 8 18.286 18.286 18.286h176.571l40 95.429c11.429 28 45.714 50.857 76 50.857h182.857c30.286 0 64.571-22.857 76-50.857l40-95.429h176.571c10.286 0 18.286-8 18.286-18.286z" />
<glyph unicode="&#xf024;" glyph-name="flag" horiz-adv-x="1061" d="M182.857 813.714c0-26.286-14.286-49.714-36.571-62.857v-723.429c0-9.714-8.571-18.286-18.286-18.286h-36.571c-9.714 0-18.286 8.571-18.286 18.286v723.429c-22.286 13.143-36.571 36.571-36.571 62.857 0 40.571 32.571 73.143 73.143 73.143s73.143-32.571 73.143-73.143zM1024 777.143v-436c0-21.143-13.143-29.143-29.714-37.714-64.571-34.857-136-66.286-210.857-66.286-105.143 0-155.429 80-280 80-90.857 0-186.286-41.143-265.143-83.429-6.286-3.429-12-5.143-18.857-5.143-20 0-36.571 16.571-36.571 36.571v424c0 13.714 6.857 23.429 17.714 31.429 13.714 9.143 30.286 17.143 45.143 24.571 72 36.571 159.429 68.571 240.571 68.571 89.714 0 160-29.714 239.429-66.857 16-8 32.571-10.857 50.286-10.857 89.714 0 186.286 77.714 211.429 77.714 20 0 36.571-16.571 36.571-36.571z" />
<glyph unicode="&#xf02b;" glyph-name="tag" horiz-adv-x="866" d="M256 704c0 40.571-32.571 73.143-73.143 73.143s-73.143-32.571-73.143-73.143 32.571-73.143 73.143-73.143 73.143 32.571 73.143 73.143zM865.714 374.857c0-19.429-8-38.286-21.143-51.429l-280.571-281.143c-13.714-13.143-32.571-21.143-52-21.143s-38.286 8-51.429 21.143l-408.571 409.143c-29.143 28.571-52 84-52 124.571v237.714c0 40 33.143 73.143 73.143 73.143h237.714c40.571 0 96-22.857 125.143-52l408.571-408c13.143-13.714 21.143-32.571 21.143-52z" />
<glyph unicode="&#xf02c;" glyph-name="tags" horiz-adv-x="1085" d="M256 704c0 40.571-32.571 73.143-73.143 73.143s-73.143-32.571-73.143-73.143 32.571-73.143 73.143-73.143 73.143 32.571 73.143 73.143zM865.714 374.857c0-19.429-8-38.286-21.143-51.429l-280.571-281.143c-13.714-13.143-32.571-21.143-52-21.143s-38.286 8-51.429 21.143l-408.571 409.143c-29.143 28.571-52 84-52 124.571v237.714c0 40 33.143 73.143 73.143 73.143h237.714c40.571 0 96-22.857 125.143-52l408.571-408c13.143-13.714 21.143-32.571 21.143-52zM1085.143 374.857c0-19.429-8-38.286-21.143-51.429l-280.571-281.143c-13.714-13.143-32.571-21.143-52-21.143-29.714 0-44.571 13.714-64 33.714l268.571 268.571c13.143 13.143 21.143 32 21.143 51.429s-8 38.286-21.143 52l-408.571 408c-29.143 29.143-84.571 52-125.143 52h128c40.571 0 96-22.857 125.143-52l408.571-408c13.143-13.714 21.143-32.571 21.143-52z" />
<glyph unicode="&#xf02f;" glyph-name="print" horiz-adv-x="951" d="M219.429 82.286h512v146.286h-512v-146.286zM219.429 448h512v219.429h-91.429c-30.286 0-54.857 24.571-54.857 54.857v91.429h-365.714v-365.714zM877.714 411.429c0 20-16.571 36.571-36.571 36.571s-36.571-16.571-36.571-36.571 16.571-36.571 36.571-36.571 36.571 16.571 36.571 36.571zM950.857 411.429v-237.714c0-9.714-8.571-18.286-18.286-18.286h-128v-91.429c0-30.286-24.571-54.857-54.857-54.857h-548.571c-30.286 0-54.857 24.571-54.857 54.857v91.429h-128c-9.714 0-18.286 8.571-18.286 18.286v237.714c0 60 49.714 109.714 109.714 109.714h36.571v310.857c0 30.286 24.571 54.857 54.857 54.857h384c30.286 0 72-17.143 93.714-38.857l86.857-86.857c21.714-21.714 38.857-63.429 38.857-93.714v-146.286h36.571c60 0 109.714-49.714 109.714-109.714z" />
<glyph unicode="&#xf044;" glyph-name="edit, pencil-square-o" horiz-adv-x="1025" d="M507.429 283.429l66.286 66.286-86.857 86.857-66.286-66.286v-32h54.857v-54.857h32zM758.857 694.857c-5.143 5.143-13.714 4.571-18.857-0.571l-200-200c-5.143-5.143-5.714-13.714-0.571-18.857s13.714-4.571 18.857 0.571l200 200c5.143 5.143 5.714 13.714 0.571 18.857zM804.571 355.429v-108.571c0-90.857-73.714-164.571-164.571-164.571h-475.429c-90.857 0-164.571 73.714-164.571 164.571v475.429c0 90.857 73.714 164.571 164.571 164.571h475.429c22.857 0 45.714-4.571 66.857-14.286 5.143-2.286 9.143-7.429 10.286-13.143 1.143-6.286-0.571-12-5.143-16.571l-28-28c-5.143-5.143-12-6.857-18.286-4.571-8.571 2.286-17.143 3.429-25.714 3.429h-475.429c-50.286 0-91.429-41.143-91.429-91.429v-475.429c0-50.286 41.143-91.429 91.429-91.429h475.429c50.286 0 91.429 41.143 91.429 91.429v72c0 4.571 1.714 9.143 5.143 12.571l36.571 36.571c5.714 5.714 13.143 6.857 20 4s11.429-9.143 11.429-16.571zM749.714 777.143l164.571-164.571-384-384h-164.571v164.571zM1003.429 701.714l-52.571-52.571-164.571 164.571 52.571 52.571c21.143 21.143 56.571 21.143 77.714 0l86.857-86.857c21.143-21.143 21.143-56.571 0-77.714z" />
<glyph unicode="&#xf058;" glyph-name="notification-success" horiz-adv-x="878" d="M733.714 540.571c0 9.714-3.429 19.429-10.286 26.286l-52 51.429c-6.857 6.857-16 10.857-25.714 10.857s-18.857-4-25.714-10.857l-233.143-232.571-129.143 129.143c-6.857 6.857-16 10.857-25.714 10.857s-18.857-4-25.714-10.857l-52-51.429c-6.857-6.857-10.286-16.571-10.286-26.286s3.429-18.857 10.286-25.714l206.857-206.857c6.857-6.857 16.571-10.857 25.714-10.857 9.714 0 19.429 4 26.286 10.857l310.286 310.286c6.857 6.857 10.286 16 10.286 25.714zM877.714 448c0-242.286-196.571-438.857-438.857-438.857s-438.857 196.571-438.857 438.857 196.571 438.857 438.857 438.857 438.857-196.571 438.857-438.857z" />
<glyph unicode="&#xf05a;" glyph-name="notification-info" horiz-adv-x="878" d="M585.143 173.714v91.429c0 10.286-8 18.286-18.286 18.286h-54.857v292.571c0 10.286-8 18.286-18.286 18.286h-182.857c-10.286 0-18.286-8-18.286-18.286v-91.429c0-10.286 8-18.286 18.286-18.286h54.857v-182.857h-54.857c-10.286 0-18.286-8-18.286-18.286v-91.429c0-10.286 8-18.286 18.286-18.286h256c10.286 0 18.286 8 18.286 18.286zM512 685.714v91.429c0 10.286-8 18.286-18.286 18.286h-109.714c-10.286 0-18.286-8-18.286-18.286v-91.429c0-10.286 8-18.286 18.286-18.286h109.714c10.286 0 18.286 8 18.286 18.286zM877.714 448c0-242.286-196.571-438.857-438.857-438.857s-438.857 196.571-438.857 438.857 196.571 438.857 438.857 438.857 438.857-196.571 438.857-438.857z" />
<glyph unicode="&#xf065;" glyph-name="expand" horiz-adv-x="878" d="M431.429 356.571c0-4.571-2.286-9.714-5.714-13.143l-189.714-189.714 82.286-82.286c6.857-6.857 10.857-16 10.857-25.714 0-20-16.571-36.571-36.571-36.571h-256c-20 0-36.571 16.571-36.571 36.571v256c0 20 16.571 36.571 36.571 36.571 9.714 0 18.857-4 25.714-10.857l82.286-82.286 189.714 189.714c3.429 3.429 8.571 5.714 13.143 5.714s9.714-2.286 13.143-5.714l65.143-65.143c3.429-3.429 5.714-8.571 5.714-13.143zM877.714 850.286v-256c0-20-16.571-36.571-36.571-36.571-9.714 0-18.857 4-25.714 10.857l-82.286 82.286-189.714-189.714c-3.429-3.429-8.571-5.714-13.143-5.714s-9.714 2.286-13.143 5.714l-65.143 65.143c-3.429 3.429-5.714 8.571-5.714 13.143s2.286 9.714 5.714 13.143l189.714 189.714-82.286 82.286c-6.857 6.857-10.857 16-10.857 25.714 0 20 16.571 36.571 36.571 36.571h256c20 0 36.571-16.571 36.571-36.571z" />
<glyph unicode="&#xf066;" glyph-name="compress" horiz-adv-x="878" d="M438.857 411.429v-256c0-20-16.571-36.571-36.571-36.571-9.714 0-18.857 4-25.714 10.857l-82.286 82.286-189.714-189.714c-3.429-3.429-8.571-5.714-13.143-5.714s-9.714 2.286-13.143 5.714l-65.143 65.143c-3.429 3.429-5.714 8.571-5.714 13.143s2.286 9.714 5.714 13.143l189.714 189.714-82.286 82.286c-6.857 6.857-10.857 16-10.857 25.714 0 20 16.571 36.571 36.571 36.571h256c20 0 36.571-16.571 36.571-36.571zM870.286 795.429c0-4.571-2.286-9.714-5.714-13.143l-189.714-189.714 82.286-82.286c6.857-6.857 10.857-16 10.857-25.714 0-20-16.571-36.571-36.571-36.571h-256c-20 0-36.571 16.571-36.571 36.571v256c0 20 16.571 36.571 36.571 36.571 9.714 0 18.857-4 25.714-10.857l82.286-82.286 189.714 189.714c3.429 3.429 8.571 5.714 13.143 5.714s9.714-2.286 13.143-5.714l65.143-65.143c3.429-3.429 5.714-8.571 5.714-13.143z" />
<glyph unicode="&#xf06a;" glyph-name="notification-error" horiz-adv-x="878" d="M438.857 886.857c242.286 0 438.857-196.571 438.857-438.857s-196.571-438.857-438.857-438.857-438.857 196.571-438.857 438.857 196.571 438.857 438.857 438.857zM512 174.286v108.571c0 10.286-8 18.857-17.714 18.857h-109.714c-10.286 0-18.857-8.571-18.857-18.857v-108.571c0-10.286 8.571-18.857 18.857-18.857h109.714c9.714 0 17.714 8.571 17.714 18.857zM510.857 370.857l10.286 354.857c0 4-1.714 8-5.714 10.286-3.429 2.857-8.571 4.571-13.714 4.571h-125.714c-5.143 0-10.286-1.714-13.714-4.571-4-2.286-5.714-6.286-5.714-10.286l9.714-354.857c0-8 8.571-14.286 19.429-14.286h105.714c10.286 0 18.857 6.286 19.429 14.286z" />
<glyph unicode="&#xf071;" glyph-name="notification-warning" d="M585.143 174.286v108.571c0 10.286-8 18.857-18.286 18.857h-109.714c-10.286 0-18.286-8.571-18.286-18.857v-108.571c0-10.286 8-18.857 18.286-18.857h109.714c10.286 0 18.286 8.571 18.286 18.857zM584 388l10.286 262.286c0 3.429-1.714 8-5.714 10.857-3.429 2.857-8.571 6.286-13.714 6.286h-125.714c-5.143 0-10.286-3.429-13.714-6.286-4-2.857-5.714-8.571-5.714-12l9.714-261.143c0-7.429 8.571-13.143 19.429-13.143h105.714c10.286 0 18.857 5.714 19.429 13.143zM576 921.714l438.857-804.571c12.571-22.286 12-49.714-1.143-72s-37.143-36-62.857-36h-877.714c-25.714 0-49.714 13.714-62.857 36s-13.714 49.714-1.143 72l438.857 804.571c12.571 23.429 37.143 38.286 64 38.286s51.429-14.857 64-38.286z" />
<glyph unicode="&#xf073;" glyph-name="calendar" horiz-adv-x="951" d="M73.143 9.143h164.571v164.571h-164.571v-164.571zM274.286 9.143h182.857v164.571h-182.857v-164.571zM73.143 210.286h164.571v182.857h-164.571v-182.857zM274.286 210.286h182.857v182.857h-182.857v-182.857zM73.143 429.714h164.571v164.571h-164.571v-164.571zM493.714 9.143h182.857v164.571h-182.857v-164.571zM274.286 429.714h182.857v164.571h-182.857v-164.571zM713.143 9.143h164.571v164.571h-164.571v-164.571zM493.714 210.286h182.857v182.857h-182.857v-182.857zM292.571 704v164.571c0 9.714-8.571 18.286-18.286 18.286h-36.571c-9.714 0-18.286-8.571-18.286-18.286v-164.571c0-9.714 8.571-18.286 18.286-18.286h36.571c9.714 0 18.286 8.571 18.286 18.286zM713.143 210.286h164.571v182.857h-164.571v-182.857zM493.714 429.714h182.857v164.571h-182.857v-164.571zM713.143 429.714h164.571v164.571h-164.571v-164.571zM731.429 704v164.571c0 9.714-8.571 18.286-18.286 18.286h-36.571c-9.714 0-18.286-8.571-18.286-18.286v-164.571c0-9.714 8.571-18.286 18.286-18.286h36.571c9.714 0 18.286 8.571 18.286 18.286zM950.857 740.571v-731.429c0-40-33.143-73.143-73.143-73.143h-804.571c-40 0-73.143 33.143-73.143 73.143v731.429c0 40 33.143 73.143 73.143 73.143h73.143v54.857c0 50.286 41.143 91.429 91.429 91.429h36.571c50.286 0 91.429-41.143 91.429-91.429v-54.857h219.429v54.857c0 50.286 41.143 91.429 91.429 91.429h36.571c50.286 0 91.429-41.143 91.429-91.429v-54.857h73.143c40 0 73.143-33.143 73.143-73.143z" />
<glyph unicode="&#xf087;" glyph-name="thumbs-o-up" horiz-adv-x="878" d="M146.286 192c0 20-16.571 36.571-36.571 36.571s-36.571-16.571-36.571-36.571 16.571-36.571 36.571-36.571 36.571 16.571 36.571 36.571zM804.571 521.143c0 38.857-34.857 73.143-73.143 73.143h-201.143c0 66.857 54.857 115.429 54.857 182.857 0 66.857-13.143 109.714-91.429 109.714-36.571-37.143-17.714-124.571-73.143-182.857-16-16.571-29.714-34.286-44-52-25.714-33.143-93.714-130.857-138.857-130.857h-18.286v-365.714h18.286c32 0 84.571-20.571 115.429-31.429 62.857-21.714 128-41.714 195.429-41.714h69.143c64.571 0 109.714 25.714 109.714 95.429 0 10.857-1.143 21.714-2.857 32 24 13.143 37.143 45.714 37.143 72 0 13.714-3.429 27.429-10.286 39.429 19.429 18.286 30.286 41.143 30.286 68 0 18.286-8 45.143-20 58.857 26.857 0.571 42.857 52 42.857 73.143zM877.714 521.714c0-33.143-9.714-65.714-28-93.143 3.429-12.571 5.143-26.286 5.143-39.429 0-28.571-7.429-57.143-21.714-82.286 1.143-8 1.714-16.571 1.714-24.571 0-36.571-12-73.143-34.286-101.714 1.143-108-72.571-171.429-178.286-171.429h-73.714c-81.143 0-156.571 24-232 50.286-16.571 5.714-62.857 22.857-78.857 22.857h-164.571c-40.571 0-73.143 32.571-73.143 73.143v365.714c0 40.571 32.571 73.143 73.143 73.143h156.571c22.286 14.857 61.143 66.286 78.286 88.571 19.429 25.143 39.429 49.714 61.143 73.143 34.286 36.571 16 126.857 73.143 182.857 13.714 13.143 32 21.143 51.429 21.143 59.429 0 116.571-21.143 144.571-76.571 17.714-34.857 20-68 20-106.286 0-40-10.286-74.286-27.429-109.714h100.571c78.857 0 146.286-66.857 146.286-145.714z" />
<glyph unicode="&#xf088;" glyph-name="thumbs-o-down" horiz-adv-x="878" d="M146.286 704c0 20-16.571 36.571-36.571 36.571s-36.571-16.571-36.571-36.571 16.571-36.571 36.571-36.571 36.571 16.571 36.571 36.571zM804.571 374.857c0 21.143-16 72.571-42.857 73.143 12 13.714 20 40.571 20 58.857 0 26.857-10.857 49.714-30.286 68 6.857 12 10.286 25.714 10.286 39.429 0 26.286-13.143 58.857-37.143 72 1.714 10.286 2.857 21.143 2.857 32 0 66.857-42.286 95.429-105.714 95.429h-73.143c-67.429 0-132.571-20-195.429-41.714-30.857-10.857-83.429-31.429-115.429-31.429h-18.286v-365.714h18.286c45.143 0 113.143-97.714 138.857-130.857 14.286-17.714 28-35.429 44-52 55.429-58.286 36.571-145.714 73.143-182.857 78.286 0 91.429 42.857 91.429 109.714 0 67.429-54.857 116-54.857 182.857h201.143c38.286 0 73.143 34.286 73.143 73.143zM877.714 374.286c0-78.857-67.429-145.714-146.286-145.714h-100.571c17.143-35.429 27.429-69.714 27.429-109.714 0-37.714-2.286-72-20-106.286-28-55.429-85.143-76.571-144.571-76.571-19.429 0-37.714 8-51.429 21.143-57.143 56-39.429 146.286-73.143 183.429-21.714 22.857-41.714 47.429-61.143 72.571-17.143 22.286-56 73.714-78.286 88.571h-156.571c-40.571 0-73.143 32.571-73.143 73.143v365.714c0 40.571 32.571 73.143 73.143 73.143h164.571c16 0 62.286 17.143 78.857 22.857 82.286 28.571 153.714 50.286 241.714 50.286h64c104 0 178.857-61.714 178.286-168.571v-2.857c22.286-28.571 34.286-65.143 34.286-101.714 0-8-0.571-16.571-1.714-24.571 14.286-25.143 21.714-53.714 21.714-82.286 0-13.143-1.714-26.857-5.143-39.429 18.286-27.429 28-60 28-93.143z" />
<glyph unicode="&#xf093;" glyph-name="upload" horiz-adv-x="951" d="M731.429 118.857c0 20-16.571 36.571-36.571 36.571s-36.571-16.571-36.571-36.571 16.571-36.571 36.571-36.571 36.571 16.571 36.571 36.571zM877.714 118.857c0 20-16.571 36.571-36.571 36.571s-36.571-16.571-36.571-36.571 16.571-36.571 36.571-36.571 36.571 16.571 36.571 36.571zM950.857 246.857v-182.857c0-30.286-24.571-54.857-54.857-54.857h-841.143c-30.286 0-54.857 24.571-54.857 54.857v182.857c0 30.286 24.571 54.857 54.857 54.857h244c15.429-42.286 56-73.143 103.429-73.143h146.286c47.429 0 88 30.857 103.429 73.143h244c30.286 0 54.857-24.571 54.857-54.857zM765.143 617.143c-5.714-13.714-18.857-22.857-33.714-22.857h-146.286v-256c0-20-16.571-36.571-36.571-36.571h-146.286c-20 0-36.571 16.571-36.571 36.571v256h-146.286c-14.857 0-28 9.143-33.714 22.857-5.714 13.143-2.857 29.143 8 39.429l256 256c6.857 7.429 16.571 10.857 25.714 10.857s18.857-3.429 25.714-10.857l256-256c10.857-10.286 13.714-26.286 8-39.429z" />
<glyph unicode="&#xf0b0;" glyph-name="filter" horiz-adv-x="805" d="M801.714 791.429c5.714-13.714 2.857-29.714-8-40l-281.714-281.714v-424c0-14.857-9.143-28-22.286-33.714-4.571-1.714-9.714-2.857-14.286-2.857-9.714 0-18.857 3.429-25.714 10.857l-146.286 146.286c-6.857 6.857-10.857 16-10.857 25.714v277.714l-281.714 281.714c-10.857 10.286-13.714 26.286-8 40 5.714 13.143 18.857 22.286 33.714 22.286h731.429c14.857 0 28-9.143 33.714-22.286z" />
<glyph unicode="&#xf0c6;" glyph-name="paperclip" horiz-adv-x="805" d="M144.801 79.413c-82.142 0-144.802 62.66-144.802 144.802 0 46.337 20.009 91.094 52.655 123.74l408.606 409.132c37.912 37.385 89.514 59.5 142.696 59.5 111.629 0 200.616-87.935 200.616-199.563 0-53.709-21.589-105.311-59.5-143.749l-319.091-318.564c-3.16-3.16-7.372-5.265-11.584-5.265-11.058 0-40.545 29.487-40.545 40.545 0 4.739 2.106 8.951 5.265 12.111l319.618 319.091c24.748 25.275 40.545 59.5 40.545 95.306 0 74.771-60.553 132.691-134.798 132.691-35.805 0-70.032-14.743-95.306-40.018l-409.132-408.606c-20.009-20.009-33.173-47.916-33.173-76.35 0-44.757 33.173-77.929 77.929-77.929 28.961 0 56.341 13.164 76.35 33.173l305.927 305.927c7.898 8.425 12.637 20.009 12.637 31.593 0 20.009-14.743 35.279-35.279 35.279-11.584 0-22.641-5.265-31.066-13.164l-215.887-215.887c-3.16-3.16-7.372-5.265-11.584-5.265-11.058 0-41.071 30.013-41.071 41.071 0 4.212 2.106 8.425 5.265 11.584l215.887 215.887c20.536 21.062 49.496 33.173 78.457 33.173 57.921 0 103.204-45.284 103.204-103.204 0-29.487-12.111-57.921-33.173-78.457l-305.927-305.927c-32.647-33.173-77.403-52.655-123.74-52.655z" />
<glyph unicode="&#xf0c9;" glyph-name="bars, navicon, reorder" horiz-adv-x="878" d="M877.714 192v-73.143c0-20-16.571-36.571-36.571-36.571h-804.571c-20 0-36.571 16.571-36.571 36.571v73.143c0 20 16.571 36.571 36.571 36.571h804.571c20 0 36.571-16.571 36.571-36.571zM877.714 484.571v-73.143c0-20-16.571-36.571-36.571-36.571h-804.571c-20 0-36.571 16.571-36.571 36.571v73.143c0 20 16.571 36.571 36.571 36.571h804.571c20 0 36.571-16.571 36.571-36.571zM877.714 777.143v-73.143c0-20-16.571-36.571-36.571-36.571h-804.571c-20 0-36.571 16.571-36.571 36.571v73.143c0 20 16.571 36.571 36.571 36.571h804.571c20 0 36.571-16.571 36.571-36.571z" />
<glyph unicode="&#xf0d7;" glyph-name="caret-down" horiz-adv-x="585" d="M585.143 557.714c0-9.714-4-18.857-10.857-25.714l-256-256c-6.857-6.857-16-10.857-25.714-10.857s-18.857 4-25.714 10.857l-256 256c-6.857 6.857-10.857 16-10.857 25.714 0 20 16.571 36.571 36.571 36.571h512c20 0 36.571-16.571 36.571-36.571z" />
<glyph unicode="&#xf0d8;" glyph-name="caret-up" horiz-adv-x="585" d="M585.143 265.143c0-20-16.571-36.571-36.571-36.571h-512c-20 0-36.571 16.571-36.571 36.571 0 9.714 4 18.857 10.857 25.714l256 256c6.857 6.857 16 10.857 25.714 10.857s18.857-4 25.714-10.857l256-256c6.857-6.857 10.857-16 10.857-25.714z" />
<glyph unicode="&#xf0d9;" glyph-name="caret-left" horiz-adv-x="402" d="M365.714 704v-512c0-20-16.571-36.571-36.571-36.571-9.714 0-18.857 4-25.714 10.857l-256 256c-6.857 6.857-10.857 16-10.857 25.714s4 18.857 10.857 25.714l256 256c6.857 6.857 16 10.857 25.714 10.857 20 0 36.571-16.571 36.571-36.571z" />
<glyph unicode="&#xf0da;" glyph-name="caret-right" horiz-adv-x="329" d="M329.143 448c0-9.714-4-18.857-10.857-25.714l-256-256c-6.857-6.857-16-10.857-25.714-10.857-20 0-36.571 16.571-36.571 36.571v512c0 20 16.571 36.571 36.571 36.571 9.714 0 18.857-4 25.714-10.857l256-256c6.857-6.857 10.857-16 10.857-25.714z" />
<glyph unicode="&#xf0dc;" glyph-name="sort, unsorted" horiz-adv-x="585" d="M585.143 338.286c0-9.714-4-18.857-10.857-25.714l-256-256c-6.857-6.857-16-10.857-25.714-10.857s-18.857 4-25.714 10.857l-256 256c-6.857 6.857-10.857 16-10.857 25.714 0 20 16.571 36.571 36.571 36.571h512c20 0 36.571-16.571 36.571-36.571zM585.143 557.714c0-20-16.571-36.571-36.571-36.571h-512c-20 0-36.571 16.571-36.571 36.571 0 9.714 4 18.857 10.857 25.714l256 256c6.857 6.857 16 10.857 25.714 10.857s18.857-4 25.714-10.857l256-256c6.857-6.857 10.857-16 10.857-25.714z" />
<glyph unicode="&#xf0dd;" glyph-name="sort-desc, sort-down" horiz-adv-x="585" d="M585.143 338.286c0-9.714-4-18.857-10.857-25.714l-256-256c-6.857-6.857-16-10.857-25.714-10.857s-18.857 4-25.714 10.857l-256 256c-6.857 6.857-10.857 16-10.857 25.714 0 20 16.571 36.571 36.571 36.571h512c20 0 36.571-16.571 36.571-36.571z" />
<glyph unicode="&#xf0de;" glyph-name="sort-asc, sort-up" horiz-adv-x="585" d="M585.143 557.714c0-20-16.571-36.571-36.571-36.571h-512c-20 0-36.571 16.571-36.571 36.571 0 9.714 4 18.857 10.857 25.714l256 256c6.857 6.857 16 10.857 25.714 10.857s18.857-4 25.714-10.857l256-256c6.857-6.857 10.857-16 10.857-25.714z" />
<glyph unicode="&#xf0e6;" glyph-name="comments-o" d="M402.286 740.571c-178.286 0-329.143-100.571-329.143-219.429 0-62.857 42.286-123.429 115.429-165.714l55.429-32-20-48c12 6.857 24 14.286 35.429 22.286l25.143 17.714 30.286-5.714c28.571-5.143 57.714-8 87.429-8 178.286 0 329.143 100.571 329.143 219.429s-150.857 219.429-329.143 219.429zM402.286 813.714c222.286 0 402.286-130.857 402.286-292.571s-180-292.571-402.286-292.571c-34.857 0-68.571 3.429-100.571 9.143-47.429-33.714-101.143-58.286-158.857-73.143-15.429-4-32-6.857-49.143-9.143h-1.714c-8.571 0-16.571 6.857-18.286 16.571v0c-2.286 10.857 5.143 17.714 11.429 25.143 22.286 25.143 47.429 47.429 66.857 94.857-92.571 53.714-152 136.571-152 229.143 0 161.714 180 292.571 402.286 292.571zM872 145.714c19.429-47.429 44.571-69.714 66.857-94.857 6.286-7.429 13.714-14.286 11.429-25.143v0c-2.286-10.286-10.857-17.714-20-16.571-17.143 2.286-33.714 5.143-49.143 9.143-57.714 14.857-111.429 39.429-158.857 73.143-32-5.714-65.714-9.143-100.571-9.143-103.429 0-198.286 28.571-269.714 75.429 16.571-1.143 33.714-2.286 50.286-2.286 122.857 0 238.857 35.429 327.429 99.429 95.429 69.714 148 164 148 266.286 0 29.714-4.571 58.857-13.143 86.857 96.571-53.143 159.429-137.714 159.429-233.143 0-93.143-59.429-175.429-152-229.143z" />
<glyph unicode="&#xf0f3;" glyph-name="bell" d="M521.143-9.143c0 5.143-4 9.143-9.143 9.143-45.143 0-82.286 37.143-82.286 82.286 0 5.143-4 9.143-9.143 9.143s-9.143-4-9.143-9.143c0-55.429 45.143-100.571 100.571-100.571 5.143 0 9.143 4 9.143 9.143zM987.429 155.429c0-40-33.143-73.143-73.143-73.143h-256c0-80.571-65.714-146.286-146.286-146.286s-146.286 65.714-146.286 146.286h-256c-40 0-73.143 33.143-73.143 73.143 84.571 71.429 182.857 199.429 182.857 475.429 0 109.714 90.857 229.714 242.286 252-2.857 6.857-4.571 14.286-4.571 22.286 0 30.286 24.571 54.857 54.857 54.857s54.857-24.571 54.857-54.857c0-8-1.714-15.429-4.571-22.286 151.429-22.286 242.286-142.286 242.286-252 0-276 98.286-404 182.857-475.429z" />
<glyph unicode="&#xf0f6;" glyph-name="file-text-o" horiz-adv-x="878" d="M838.857 742.857c21.143-21.143 38.857-63.429 38.857-93.714v-658.286c0-30.286-24.571-54.857-54.857-54.857h-768c-30.286 0-54.857 24.571-54.857 54.857v914.286c0 30.286 24.571 54.857 54.857 54.857h512c30.286 0 72.571-17.714 93.714-38.857zM585.143 882.286v-214.857h214.857c-3.429 9.714-8.571 19.429-12.571 23.429l-178.857 178.857c-4 4-13.714 9.143-23.429 12.571zM804.571 9.143v585.143h-237.714c-30.286 0-54.857 24.571-54.857 54.857v237.714h-438.857v-877.714h731.429zM219.429 502.857c0 10.286 8 18.286 18.286 18.286h402.286c10.286 0 18.286-8 18.286-18.286v-36.571c0-10.286-8-18.286-18.286-18.286h-402.286c-10.286 0-18.286 8-18.286 18.286v36.571zM640 374.857c10.286 0 18.286-8 18.286-18.286v-36.571c0-10.286-8-18.286-18.286-18.286h-402.286c-10.286 0-18.286 8-18.286 18.286v36.571c0 10.286 8 18.286 18.286 18.286h402.286zM640 228.571c10.286 0 18.286-8 18.286-18.286v-36.571c0-10.286-8-18.286-18.286-18.286h-402.286c-10.286 0-18.286 8-18.286 18.286v36.571c0 10.286 8 18.286 18.286 18.286h402.286z" />
<glyph unicode="&#xf108;" glyph-name="desktop" horiz-adv-x="1097" d="M1024 393.143v475.429c0 9.714-8.571 18.286-18.286 18.286h-914.286c-9.714 0-18.286-8.571-18.286-18.286v-475.429c0-9.714 8.571-18.286 18.286-18.286h914.286c9.714 0 18.286 8.571 18.286 18.286zM1097.143 868.571v-621.714c0-50.286-41.143-91.429-91.429-91.429h-310.857c0-48.571 36.571-89.714 36.571-109.714s-16.571-36.571-36.571-36.571h-292.571c-20 0-36.571 16.571-36.571 36.571 0 21.143 36.571 60 36.571 109.714h-310.857c-50.286 0-91.429 41.143-91.429 91.429v621.714c0 50.286 41.143 91.429 91.429 91.429h914.286c50.286 0 91.429-41.143 91.429-91.429z" />
<glyph unicode="&#xf142;" glyph-name="ellipsis-v" horiz-adv-x="219" d="M219.429 246.857v-109.714c0-30.286-24.571-54.857-54.857-54.857h-109.714c-30.286 0-54.857 24.571-54.857 54.857v109.714c0 30.286 24.571 54.857 54.857 54.857h109.714c30.286 0 54.857-24.571 54.857-54.857zM219.429 539.429v-109.714c0-30.286-24.571-54.857-54.857-54.857h-109.714c-30.286 0-54.857 24.571-54.857 54.857v109.714c0 30.286 24.571 54.857 54.857 54.857h109.714c30.286 0 54.857-24.571 54.857-54.857zM219.429 832v-109.714c0-30.286-24.571-54.857-54.857-54.857h-109.714c-30.286 0-54.857 24.571-54.857 54.857v109.714c0 30.286 24.571 54.857 54.857 54.857h109.714c30.286 0 54.857-24.571 54.857-54.857z" />
<glyph unicode="&#xf147;" glyph-name="minus-square-o" horiz-adv-x="805" d="M658.286 502.857v-36.571c0-10.286-8-18.286-18.286-18.286h-475.429c-10.286 0-18.286 8-18.286 18.286v36.571c0 10.286 8 18.286 18.286 18.286h475.429c10.286 0 18.286-8 18.286-18.286zM731.429 246.857v475.429c0 50.286-41.143 91.429-91.429 91.429h-475.429c-50.286 0-91.429-41.143-91.429-91.429v-475.429c0-50.286 41.143-91.429 91.429-91.429h475.429c50.286 0 91.429 41.143 91.429 91.429zM804.571 722.286v-475.429c0-90.857-73.714-164.571-164.571-164.571h-475.429c-90.857 0-164.571 73.714-164.571 164.571v475.429c0 90.857 73.714 164.571 164.571 164.571h475.429c90.857 0 164.571-73.714 164.571-164.571z" />
<glyph unicode="&#xf15d;" glyph-name="sort-alpha-asc" horiz-adv-x="966" d="M680.571 726.857h101.143l-41.143 124.571-6.857 26.857c-0.571 4.571-1.143 8-1.143 11.429h-2.286l-1.714-11.429c-1.714-6.857-2.286-15.429-6.286-26.857zM420.571 137.143c0-5.143-2.286-9.714-5.714-13.714l-182.286-182.286c-4-3.429-8.571-5.143-13.143-5.143s-9.143 1.714-13.143 5.143l-182.857 182.857c-5.143 5.714-6.857 13.143-4 20s9.714 11.429 17.143 11.429h109.714v786.286c0 10.286 8 18.286 18.286 18.286h109.714c10.286 0 18.286-8 18.286-18.286v-786.286h109.714c10.286 0 18.286-8 18.286-18.286zM898.286 69.143v-133.143h-333.714v51.429l210.857 302.286c4.571 6.857 9.143 12.571 12 15.429l6.286 5.143v1.714c-2.286 0-4.571-0.571-8-0.571-4.571-1.143-10.286-1.714-17.143-1.714h-132.571v-65.714h-68.571v130.857h324v-50.857l-210.857-302.857c-3.429-5.143-8-10.286-12-14.857l-6.286-6.286v-1.143l8 1.143c5.143 1.143 10.286 1.143 17.143 1.143h141.714v68h69.143zM949.143 581.714v-60.571h-164.571v60.571h42.857l-26.857 82.286h-138.857l-26.857-82.286h42.857v-60.571h-164v60.571h40l131.429 378.286h92.571l131.429-378.286h40z" />
<glyph unicode="&#xf15e;" glyph-name="sort-alpha-desc" horiz-adv-x="966" d="M680.571 141.714h101.143l-41.143 124.571-6.857 26.857c-0.571 4.571-1.143 8-1.143 11.429h-2.286l-1.714-11.429c-1.714-6.857-2.286-15.429-6.286-26.857zM420.571 137.143c0-5.143-2.286-9.714-5.714-13.714l-182.286-182.286c-4-3.429-8.571-5.143-13.143-5.143s-9.143 1.714-13.143 5.143l-182.857 182.857c-5.143 5.714-6.857 13.143-4 20s9.714 11.429 17.143 11.429h109.714v786.286c0 10.286 8 18.286 18.286 18.286h109.714c10.286 0 18.286-8 18.286-18.286v-786.286h109.714c10.286 0 18.286-8 18.286-18.286zM949.143-3.429v-60.571h-164.571v60.571h42.857l-26.857 82.286h-138.857l-26.857-82.286h42.857v-60.571h-164v60.571h40l131.429 378.286h92.571l131.429-378.286h40zM898.286 654.286v-133.143h-333.714v51.429l210.857 302.286c4.571 6.857 9.143 12.571 12 15.429l6.286 5.143v1.714c-2.286 0-4.571-0.571-8-0.571-4.571-1.143-10.286-1.714-17.143-1.714h-132.571v-65.714h-68.571v130.857h324v-50.857l-210.857-302.857c-3.429-5.143-8-10.286-12-14.857l-6.286-5.714v-1.714l8 1.714c5.143 0.571 10.286 0.571 17.143 0.571h141.714v68h69.143z" />
<glyph unicode="&#xf160;" glyph-name="sort-amount-asc" horiz-adv-x="1041" d="M420.571 137.143c0-5.143-2.286-9.714-5.714-13.714l-182.286-182.286c-4-3.429-8.571-5.143-13.143-5.143s-9.143 1.714-13.143 5.143l-182.857 182.857c-5.143 5.714-6.857 13.143-4 20s9.714 11.429 17.143 11.429h109.714v786.286c0 10.286 8 18.286 18.286 18.286h109.714c10.286 0 18.286-8 18.286-18.286v-786.286h109.714c10.286 0 18.286-8 18.286-18.286zM1024 64v-109.714c0-10.286-8-18.286-18.286-18.286h-475.429c-10.286 0-18.286 8-18.286 18.286v109.714c0 10.286 8 18.286 18.286 18.286h475.429c10.286 0 18.286-8 18.286-18.286zM914.286 356.571v-109.714c0-10.286-8-18.286-18.286-18.286h-365.714c-10.286 0-18.286 8-18.286 18.286v109.714c0 10.286 8 18.286 18.286 18.286h365.714c10.286 0 18.286-8 18.286-18.286zM804.571 649.143v-109.714c0-10.286-8-18.286-18.286-18.286h-256c-10.286 0-18.286 8-18.286 18.286v109.714c0 10.286 8 18.286 18.286 18.286h256c10.286 0 18.286-8 18.286-18.286zM694.857 941.714v-109.714c0-10.286-8-18.286-18.286-18.286h-146.286c-10.286 0-18.286 8-18.286 18.286v109.714c0 10.286 8 18.286 18.286 18.286h146.286c10.286 0 18.286-8 18.286-18.286z" />
<glyph unicode="&#xf161;" glyph-name="sort-amount-desc" horiz-adv-x="1041" d="M694.857 64v-109.714c0-10.286-8-18.286-18.286-18.286h-146.286c-10.286 0-18.286 8-18.286 18.286v109.714c0 10.286 8 18.286 18.286 18.286h146.286c10.286 0 18.286-8 18.286-18.286zM420.571 137.143c0-5.143-2.286-9.714-5.714-13.714l-182.286-182.286c-4-3.429-8.571-5.143-13.143-5.143s-9.143 1.714-13.143 5.143l-182.857 182.857c-5.143 5.714-6.857 13.143-4 20s9.714 11.429 17.143 11.429h109.714v786.286c0 10.286 8 18.286 18.286 18.286h109.714c10.286 0 18.286-8 18.286-18.286v-786.286h109.714c10.286 0 18.286-8 18.286-18.286zM804.571 356.571v-109.714c0-10.286-8-18.286-18.286-18.286h-256c-10.286 0-18.286 8-18.286 18.286v109.714c0 10.286 8 18.286 18.286 18.286h256c10.286 0 18.286-8 18.286-18.286zM914.286 649.143v-109.714c0-10.286-8-18.286-18.286-18.286h-365.714c-10.286 0-18.286 8-18.286 18.286v109.714c0 10.286 8 18.286 18.286 18.286h365.714c10.286 0 18.286-8 18.286-18.286zM1024 941.714v-109.714c0-10.286-8-18.286-18.286-18.286h-475.429c-10.286 0-18.286 8-18.286 18.286v109.714c0 10.286 8 18.286 18.286 18.286h475.429c10.286 0 18.286-8 18.286-18.286z" />
<glyph unicode="&#xf162;" glyph-name="sort-numeric-asc" horiz-adv-x="866" d="M769.143 209.714c0 46.857-38.286 96.571-84 96.571-40 0-65.143-32.571-65.143-74.857 0-41.143 26.286-76 80.571-76 37.143 0 68.571 22.286 68.571 54.286zM420.571 137.143c0-5.143-2.286-9.714-5.714-13.714l-182.286-182.286c-4-3.429-8.571-5.143-13.143-5.143s-9.143 1.714-13.143 5.143l-182.857 182.857c-5.143 5.714-6.857 13.143-4 20s9.714 11.429 17.143 11.429h109.714v786.286c0 10.286 8 18.286 18.286 18.286h109.714c10.286 0 18.286-8 18.286-18.286v-786.286h109.714c10.286 0 18.286-8 18.286-18.286zM849.143 176.571c0-115.429-62.857-240.571-198.857-240.571-25.714 0-46.857 4-61.714 9.143-9.143 2.857-17.143 5.714-24 8.571l22.286 64.571c5.143-2.286 11.429-4.571 17.714-6.286 11.429-4 26.286-7.429 42.857-7.429 68.571 0 104 57.143 114.857 116.571h-1.143c-16-17.143-49.714-29.143-83.429-29.143-82.857 0-137.143 65.143-137.143 139.429 0 78.857 60.571 143.429 144.571 143.429 90.857 0 164-74.286 164-198.286zM832 586.286v-65.143h-268v65.143h95.429v246.857c0 7.429 0.571 14.857 0.571 20.571v9.143h-1.143l-4-6.857c-2.857-4.571-7.429-10.286-14.857-17.714l-35.429-33.143-46.857 49.143 109.714 105.714h70.286v-373.714h94.286z" />
<glyph unicode="&#xf163;" glyph-name="sort-numeric-desc" horiz-adv-x="866" d="M769.143 794.857c0 46.857-38.286 96.571-84 96.571-40 0-65.143-32.571-65.143-74.857 0-41.143 26.286-76 80.571-76 37.143 0 68.571 22.286 68.571 54.286zM420.571 137.143c0-5.143-2.286-9.714-5.714-13.714l-182.286-182.286c-4-3.429-8.571-5.143-13.143-5.143s-9.143 1.714-13.143 5.143l-182.857 182.857c-5.143 5.714-6.857 13.143-4 20s9.714 11.429 17.143 11.429h109.714v786.286c0 10.286 8 18.286 18.286 18.286h109.714c10.286 0 18.286-8 18.286-18.286v-786.286h109.714c10.286 0 18.286-8 18.286-18.286zM832 1.143v-65.143h-268v65.143h95.429v246.857c0 7.429 0.571 14.857 0.571 20.571v9.143h-1.143l-4-6.857c-2.857-4.571-7.429-10.286-14.857-17.714l-35.429-33.143-46.857 49.143 109.714 105.714h70.286v-373.714h94.286zM849.143 761.714c0-115.429-62.857-240.571-198.857-240.571-25.714 0-46.857 4-61.714 9.143-9.143 2.857-17.143 5.714-24 8.571l22.286 64.571c5.143-2.286 11.429-4.571 17.714-6.286 11.429-4 26.286-7.429 42.857-7.429 68.571 0 104 57.143 114.857 116.571h-1.143c-16-17.143-49.714-29.143-83.429-29.143-82.857 0-137.143 65.143-137.143 139.429 0 78.857 60.571 143.429 144.571 143.429 90.857 0 164-74.286 164-198.286z" />
<glyph unicode="&#xf196;" glyph-name="plus-square-o" horiz-adv-x="805" d="M658.286 502.857v-36.571c0-10.286-8-18.286-18.286-18.286h-201.143v-201.143c0-10.286-8-18.286-18.286-18.286h-36.571c-10.286 0-18.286 8-18.286 18.286v201.143h-201.143c-10.286 0-18.286 8-18.286 18.286v36.571c0 10.286 8 18.286 18.286 18.286h201.143v201.143c0 10.286 8 18.286 18.286 18.286h36.571c10.286 0 18.286-8 18.286-18.286v-201.143h201.143c10.286 0 18.286-8 18.286-18.286zM731.429 246.857v475.429c0 50.286-41.143 91.429-91.429 91.429h-475.429c-50.286 0-91.429-41.143-91.429-91.429v-475.429c0-50.286 41.143-91.429 91.429-91.429h475.429c50.286 0 91.429 41.143 91.429 91.429zM804.571 722.286v-475.429c0-90.857-73.714-164.571-164.571-164.571h-475.429c-90.857 0-164.571 73.714-164.571 164.571v475.429c0 90.857 73.714 164.571 164.571 164.571h475.429c90.857 0 164.571-73.714 164.571-164.571z" />
<glyph unicode="&#xf2b7;" glyph-name="envelope-open-o" d="M842.286 438.286l22.286-29.143c6.286-8 4.571-18.857-2.857-25.143-57.143-44.571-188.571-145.714-194.286-150.286-40.571-33.143-95.429-78.857-154.857-78.286h-1.143c-59.429 0-114.286 45.143-154.857 78.286-6.286 5.143-133.143 102.857-189.143 146.286-8 6.286-9.714 17.143-3.429 25.143l21.143 29.714c6.286 8.571 18.286 10.286 26.286 3.429 38.857-30.286 93.714-72.571 174.857-134.857 28.571-21.714 85.143-74.857 125.143-74.857h1.143c40 0 96.571 53.143 125.143 74.857 84 64.571 140 107.429 178.857 138.286 8 6.286 19.429 4.571 25.714-3.429zM950.857 27.429v530.286c-57.143 53.143-48.571 48.571-313.143 253.143-28.571 22.286-85.143 76-125.143 76h-1.143c-40 0-96.571-53.714-125.143-76-264.571-204.571-256-200-313.143-253.143v-530.286c0-9.714 8.571-18.286 18.286-18.286h841.143c9.714 0 18.286 8.571 18.286 18.286zM1024 557.714v-530.286c0-50.286-41.143-91.429-91.429-91.429h-841.143c-50.286 0-91.429 41.143-91.429 91.429v530.286c0 20.571 8.571 40 23.429 53.714 117.143 108.571 252 202.857 333.143 269.714 40 33.143 95.429 78.857 154.857 78.857h1.143c59.429 0 114.857-45.714 154.857-78.857 75.429-62.286 218.857-163.429 333.143-269.714 14.857-13.714 23.429-33.143 23.429-53.714z" />
<glyph unicode="&#xf2b9;" glyph-name="address-book" horiz-adv-x="951" d="M686.286 252.571c0 101.143-24.571 213.714-126.286 213.714-31.429-18.286-74.286-49.714-121.143-49.714s-89.714 31.429-121.143 49.714c-101.714 0-126.286-112.571-126.286-213.714 0-56.571 37.143-97.143 82.857-97.143h329.143c45.714 0 82.857 40.571 82.857 97.143zM587.429 592c0 82.286-66.857 148.571-148.571 148.571s-148.571-66.286-148.571-148.571c0-81.714 66.857-148 148.571-148s148.571 66.286 148.571 148zM950.857 283.429v-109.714c0-10.286-8-18.286-18.286-18.286h-54.857v-128c0-50.286-41.143-91.429-91.429-91.429h-694.857c-50.286 0-91.429 41.143-91.429 91.429v841.143c0 50.286 41.143 91.429 91.429 91.429h694.857c50.286 0 91.429-41.143 91.429-91.429v-128h54.857c10.286 0 18.286-8 18.286-18.286v-109.714c0-10.286-8-18.286-18.286-18.286h-54.857v-73.143h54.857c10.286 0 18.286-8 18.286-18.286v-109.714c0-10.286-8-18.286-18.286-18.286h-54.857v-73.143h54.857c10.286 0 18.286-8 18.286-18.286z" />
<glyph unicode="&#xf2ba;" glyph-name="address-book-o" horiz-adv-x="951" d="M587.429 592c0-81.714-66.857-148-148.571-148s-148.571 66.286-148.571 148c0 82.286 66.857 148.571 148.571 148.571s148.571-66.286 148.571-148.571zM560 466.286c109.143 0 126.286-129.714 126.286-213.714 0-48-30.286-97.143-82.857-97.143h-329.143c-52.571 0-82.857 49.143-82.857 97.143 0 80.571 17.143 213.714 123.429 213.714h2.857c37.714-22.286 76-49.714 121.143-49.714s83.429 27.429 121.143 49.714zM950.857 612.571c0-9.714-8.571-18.286-18.286-18.286h-54.857v-73.143h54.857c9.714 0 18.286-8.571 18.286-18.286v-109.714c0-9.714-8.571-18.286-18.286-18.286h-54.857v-73.143h54.857c9.714 0 18.286-8.571 18.286-18.286v-109.714c0-9.714-8.571-18.286-18.286-18.286h-54.857v-128c0-50.286-41.143-91.429-91.429-91.429h-694.857c-50.286 0-91.429 41.143-91.429 91.429v841.143c0 50.286 41.143 91.429 91.429 91.429h694.857c50.286 0 91.429-41.143 91.429-91.429v-128h54.857c9.714 0 18.286-8.571 18.286-18.286v-109.714zM804.571 27.429v841.143c0 9.714-8.571 18.286-18.286 18.286h-694.857c-9.714 0-18.286-8.571-18.286-18.286v-841.143c0-9.714 8.571-18.286 18.286-18.286h694.857c9.714 0 18.286 8.571 18.286 18.286z" />
<glyph unicode="" glyph-name="address-book-o" horiz-adv-x="951" d="M587.429 592c0-81.714-66.857-148-148.571-148s-148.571 66.286-148.571 148c0 82.286 66.857 148.571 148.571 148.571s148.571-66.286 148.571-148.571zM560 466.286c109.143 0 126.286-129.714 126.286-213.714 0-48-30.286-97.143-82.857-97.143h-329.143c-52.571 0-82.857 49.143-82.857 97.143 0 80.571 17.143 213.714 123.429 213.714h2.857c37.714-22.286 76-49.714 121.143-49.714s83.429 27.429 121.143 49.714zM950.857 612.571c0-9.714-8.571-18.286-18.286-18.286h-54.857v-73.143h54.857c9.714 0 18.286-8.571 18.286-18.286v-109.714c0-9.714-8.571-18.286-18.286-18.286h-54.857v-73.143h54.857c9.714 0 18.286-8.571 18.286-18.286v-109.714c0-9.714-8.571-18.286-18.286-18.286h-54.857v-128c0-50.286-41.143-91.429-91.429-91.429h-694.857c-50.286 0-91.429 41.143-91.429 91.429v841.143c0 50.286 41.143 91.429 91.429 91.429h694.857c50.286 0 91.429-41.143 91.429-91.429v-128h54.857c9.714 0 18.286-8.571 18.286-18.286v-109.714zM804.571 27.429v841.143c0 9.714-8.571 18.286-18.286 18.286h-694.857c-9.714 0-18.286-8.571-18.286-18.286v-841.143c0-9.714 8.571-18.286 18.286-18.286h694.857c9.714 0 18.286 8.571 18.286 18.286z" />
<glyph unicode="user" glyph-name="user" horiz-adv-x="731" d="M731.429 160.571c0-83.429-54.857-151.429-121.714-151.429h-488c-66.857 0-121.714 68-121.714 151.429 0 150.286 37.143 324 186.857 324 46.286-45.143 109.143-73.143 178.857-73.143s132.571 28 178.857 73.143c149.714 0 186.857-173.714 186.857-324zM585.143 667.429c0-121.143-98.286-219.429-219.429-219.429s-219.429 98.286-219.429 219.429 98.286 219.429 219.429 219.429 219.429-98.286 219.429-219.429z" />
<glyph unicode="upload" glyph-name="upload" horiz-adv-x="951" d="M731.429 118.857c0 20-16.571 36.571-36.571 36.571s-36.571-16.571-36.571-36.571 16.571-36.571 36.571-36.571 36.571 16.571 36.571 36.571zM877.714 118.857c0 20-16.571 36.571-36.571 36.571s-36.571-16.571-36.571-36.571 16.571-36.571 36.571-36.571 36.571 16.571 36.571 36.571zM950.857 246.857v-182.857c0-30.286-24.571-54.857-54.857-54.857h-841.143c-30.286 0-54.857 24.571-54.857 54.857v182.857c0 30.286 24.571 54.857 54.857 54.857h244c15.429-42.286 56-73.143 103.429-73.143h146.286c47.429 0 88 30.857 103.429 73.143h244c30.286 0 54.857-24.571 54.857-54.857zM765.143 617.143c-5.714-13.714-18.857-22.857-33.714-22.857h-146.286v-256c0-20-16.571-36.571-36.571-36.571h-146.286c-20 0-36.571 16.571-36.571 36.571v256h-146.286c-14.857 0-28 9.143-33.714 22.857-5.714 13.143-2.857 29.143 8 39.429l256 256c6.857 7.429 16.571 10.857 25.714 10.857s18.857-3.429 25.714-10.857l256-256c10.857-10.286 13.714-26.286 8-39.429z" />
<glyph unicode="unsorted" glyph-name="sort, unsorted" horiz-adv-x="585" d="M585.143 338.286c0-9.714-4-18.857-10.857-25.714l-256-256c-6.857-6.857-16-10.857-25.714-10.857s-18.857 4-25.714 10.857l-256 256c-6.857 6.857-10.857 16-10.857 25.714 0 20 16.571 36.571 36.571 36.571h512c20 0 36.571-16.571 36.571-36.571zM585.143 557.714c0-20-16.571-36.571-36.571-36.571h-512c-20 0-36.571 16.571-36.571 36.571 0 9.714 4 18.857 10.857 25.714l256 256c6.857 6.857 16 10.857 25.714 10.857s18.857-4 25.714-10.857l256-256c6.857-6.857 10.857-16 10.857-25.714z" />
<glyph unicode="tree-expand" glyph-name="plus-square-o" horiz-adv-x="805" d="M658.286 502.857v-36.571c0-10.286-8-18.286-18.286-18.286h-201.143v-201.143c0-10.286-8-18.286-18.286-18.286h-36.571c-10.286 0-18.286 8-18.286 18.286v201.143h-201.143c-10.286 0-18.286 8-18.286 18.286v36.571c0 10.286 8 18.286 18.286 18.286h201.143v201.143c0 10.286 8 18.286 18.286 18.286h36.571c10.286 0 18.286-8 18.286-18.286v-201.143h201.143c10.286 0 18.286-8 18.286-18.286zM731.429 246.857v475.429c0 50.286-41.143 91.429-91.429 91.429h-475.429c-50.286 0-91.429-41.143-91.429-91.429v-475.429c0-50.286 41.143-91.429 91.429-91.429h475.429c50.286 0 91.429 41.143 91.429 91.429zM804.571 722.286v-475.429c0-90.857-73.714-164.571-164.571-164.571h-475.429c-90.857 0-164.571 73.714-164.571 164.571v475.429c0 90.857 73.714 164.571 164.571 164.571h475.429c90.857 0 164.571-73.714 164.571-164.571z" />
<glyph unicode="tree-collapse" glyph-name="minus-square-o" horiz-adv-x="805" d="M658.286 502.857v-36.571c0-10.286-8-18.286-18.286-18.286h-475.429c-10.286 0-18.286 8-18.286 18.286v36.571c0 10.286 8 18.286 18.286 18.286h475.429c10.286 0 18.286-8 18.286-18.286zM731.429 246.857v475.429c0 50.286-41.143 91.429-91.429 91.429h-475.429c-50.286 0-91.429-41.143-91.429-91.429v-475.429c0-50.286 41.143-91.429 91.429-91.429h475.429c50.286 0 91.429 41.143 91.429 91.429zM804.571 722.286v-475.429c0-90.857-73.714-164.571-164.571-164.571h-475.429c-90.857 0-164.571 73.714-164.571 164.571v475.429c0 90.857 73.714 164.571 164.571 164.571h475.429c90.857 0 164.571-73.714 164.571-164.571z" />
<glyph unicode="trash" glyph-name="trash-o" horiz-adv-x="805" d="M292.571 539.429v-329.143c0-10.286-8-18.286-18.286-18.286h-36.571c-10.286 0-18.286 8-18.286 18.286v329.143c0 10.286 8 18.286 18.286 18.286h36.571c10.286 0 18.286-8 18.286-18.286zM438.857 539.429v-329.143c0-10.286-8-18.286-18.286-18.286h-36.571c-10.286 0-18.286 8-18.286 18.286v329.143c0 10.286 8 18.286 18.286 18.286h36.571c10.286 0 18.286-8 18.286-18.286zM585.143 539.429v-329.143c0-10.286-8-18.286-18.286-18.286h-36.571c-10.286 0-18.286 8-18.286 18.286v329.143c0 10.286 8 18.286 18.286 18.286h36.571c10.286 0 18.286-8 18.286-18.286zM658.286 125.714v541.714h-512v-541.714c0-27.429 15.429-43.429 18.286-43.429h475.429c2.857 0 18.286 16 18.286 43.429zM274.286 740.571h256l-27.429 66.857c-1.714 2.286-6.857 5.714-9.714 6.286h-181.143c-3.429-0.571-8-4-9.714-6.286zM804.571 722.286v-36.571c0-10.286-8-18.286-18.286-18.286h-54.857v-541.714c0-62.857-41.143-116.571-91.429-116.571h-475.429c-50.286 0-91.429 51.429-91.429 114.286v544h-54.857c-10.286 0-18.286 8-18.286 18.286v36.571c0 10.286 8 18.286 18.286 18.286h176.571l40 95.429c11.429 28 45.714 50.857 76 50.857h182.857c30.286 0 64.571-22.857 76-50.857l40-95.429h176.571c10.286 0 18.286-8 18.286-18.286z" />
<glyph unicode="thumbs-up" glyph-name="thumbs-o-up" horiz-adv-x="878" d="M146.286 192c0 20-16.571 36.571-36.571 36.571s-36.571-16.571-36.571-36.571 16.571-36.571 36.571-36.571 36.571 16.571 36.571 36.571zM804.571 521.143c0 38.857-34.857 73.143-73.143 73.143h-201.143c0 66.857 54.857 115.429 54.857 182.857 0 66.857-13.143 109.714-91.429 109.714-36.571-37.143-17.714-124.571-73.143-182.857-16-16.571-29.714-34.286-44-52-25.714-33.143-93.714-130.857-138.857-130.857h-18.286v-365.714h18.286c32 0 84.571-20.571 115.429-31.429 62.857-21.714 128-41.714 195.429-41.714h69.143c64.571 0 109.714 25.714 109.714 95.429 0 10.857-1.143 21.714-2.857 32 24 13.143 37.143 45.714 37.143 72 0 13.714-3.429 27.429-10.286 39.429 19.429 18.286 30.286 41.143 30.286 68 0 18.286-8 45.143-20 58.857 26.857 0.571 42.857 52 42.857 73.143zM877.714 521.714c0-33.143-9.714-65.714-28-93.143 3.429-12.571 5.143-26.286 5.143-39.429 0-28.571-7.429-57.143-21.714-82.286 1.143-8 1.714-16.571 1.714-24.571 0-36.571-12-73.143-34.286-101.714 1.143-108-72.571-171.429-178.286-171.429h-73.714c-81.143 0-156.571 24-232 50.286-16.571 5.714-62.857 22.857-78.857 22.857h-164.571c-40.571 0-73.143 32.571-73.143 73.143v365.714c0 40.571 32.571 73.143 73.143 73.143h156.571c22.286 14.857 61.143 66.286 78.286 88.571 19.429 25.143 39.429 49.714 61.143 73.143 34.286 36.571 16 126.857 73.143 182.857 13.714 13.143 32 21.143 51.429 21.143 59.429 0 116.571-21.143 144.571-76.571 17.714-34.857 20-68 20-106.286 0-40-10.286-74.286-27.429-109.714h100.571c78.857 0 146.286-66.857 146.286-145.714z" />
<glyph unicode="thumbs-down" glyph-name="thumbs-o-down" horiz-adv-x="878" d="M146.286 704c0 20-16.571 36.571-36.571 36.571s-36.571-16.571-36.571-36.571 16.571-36.571 36.571-36.571 36.571 16.571 36.571 36.571zM804.571 374.857c0 21.143-16 72.571-42.857 73.143 12 13.714 20 40.571 20 58.857 0 26.857-10.857 49.714-30.286 68 6.857 12 10.286 25.714 10.286 39.429 0 26.286-13.143 58.857-37.143 72 1.714 10.286 2.857 21.143 2.857 32 0 66.857-42.286 95.429-105.714 95.429h-73.143c-67.429 0-132.571-20-195.429-41.714-30.857-10.857-83.429-31.429-115.429-31.429h-18.286v-365.714h18.286c45.143 0 113.143-97.714 138.857-130.857 14.286-17.714 28-35.429 44-52 55.429-58.286 36.571-145.714 73.143-182.857 78.286 0 91.429 42.857 91.429 109.714 0 67.429-54.857 116-54.857 182.857h201.143c38.286 0 73.143 34.286 73.143 73.143zM877.714 374.286c0-78.857-67.429-145.714-146.286-145.714h-100.571c17.143-35.429 27.429-69.714 27.429-109.714 0-37.714-2.286-72-20-106.286-28-55.429-85.143-76.571-144.571-76.571-19.429 0-37.714 8-51.429 21.143-57.143 56-39.429 146.286-73.143 183.429-21.714 22.857-41.714 47.429-61.143 72.571-17.143 22.286-56 73.714-78.286 88.571h-156.571c-40.571 0-73.143 32.571-73.143 73.143v365.714c0 40.571 32.571 73.143 73.143 73.143h164.571c16 0 62.286 17.143 78.857 22.857 82.286 28.571 153.714 50.286 241.714 50.286h64c104 0 178.857-61.714 178.286-168.571v-2.857c22.286-28.571 34.286-65.143 34.286-101.714 0-8-0.571-16.571-1.714-24.571 14.286-25.143 21.714-53.714 21.714-82.286 0-13.143-1.714-26.857-5.143-39.429 18.286-27.429 28-60 28-93.143z" />
<glyph unicode="th" glyph-name="Modules" d="M292.571 246.857v-109.714c0-30.286-24.571-54.857-54.857-54.857h-182.857c-30.286 0-54.857 24.571-54.857 54.857v109.714c0 30.286 24.571 54.857 54.857 54.857h182.857c30.286 0 54.857-24.571 54.857-54.857zM292.571 539.429v-109.714c0-30.286-24.571-54.857-54.857-54.857h-182.857c-30.286 0-54.857 24.571-54.857 54.857v109.714c0 30.286 24.571 54.857 54.857 54.857h182.857c30.286 0 54.857-24.571 54.857-54.857zM658.286 246.857v-109.714c0-30.286-24.571-54.857-54.857-54.857h-182.857c-30.286 0-54.857 24.571-54.857 54.857v109.714c0 30.286 24.571 54.857 54.857 54.857h182.857c30.286 0 54.857-24.571 54.857-54.857zM292.571 832v-109.714c0-30.286-24.571-54.857-54.857-54.857h-182.857c-30.286 0-54.857 24.571-54.857 54.857v109.714c0 30.286 24.571 54.857 54.857 54.857h182.857c30.286 0 54.857-24.571 54.857-54.857zM658.286 539.429v-109.714c0-30.286-24.571-54.857-54.857-54.857h-182.857c-30.286 0-54.857 24.571-54.857 54.857v109.714c0 30.286 24.571 54.857 54.857 54.857h182.857c30.286 0 54.857-24.571 54.857-54.857zM1024 246.857v-109.714c0-30.286-24.571-54.857-54.857-54.857h-182.857c-30.286 0-54.857 24.571-54.857 54.857v109.714c0 30.286 24.571 54.857 54.857 54.857h182.857c30.286 0 54.857-24.571 54.857-54.857zM658.286 832v-109.714c0-30.286-24.571-54.857-54.857-54.857h-182.857c-30.286 0-54.857 24.571-54.857 54.857v109.714c0 30.286 24.571 54.857 54.857 54.857h182.857c30.286 0 54.857-24.571 54.857-54.857zM1024 539.429v-109.714c0-30.286-24.571-54.857-54.857-54.857h-182.857c-30.286 0-54.857 24.571-54.857 54.857v109.714c0 30.286 24.571 54.857 54.857 54.857h182.857c30.286 0 54.857-24.571 54.857-54.857zM1024 832v-109.714c0-30.286-24.571-54.857-54.857-54.857h-182.857c-30.286 0-54.857 24.571-54.857 54.857v109.714c0 30.286 24.571 54.857 54.857 54.857h182.857c30.286 0 54.857-24.571 54.857-54.857z" />
<glyph unicode="task-alt" glyph-name="task-alt" horiz-adv-x="887" d="M227.736 561.778c10.565-14.791 25.826-22.756 42.26-23.893h2.348c15.261 0 30.521 7.964 42.26 20.48l78.651 95.573c9.391 12.516 8.217 29.582-4.696 39.822-11.739 9.102-30.521 6.827-41.086-4.551l-75.129-91.022-23.478 34.133c-8.217 12.516-27 15.929-39.913 7.964-12.913-9.102-16.435-26.169-8.217-38.684l27-39.822zM667.948 632.32h-212.475c-16.435 0-29.347-12.516-29.347-28.444s12.913-28.444 29.347-28.444h213.649c16.435 0 29.347 12.516 29.347 28.444s-14.087 28.444-30.521 28.444zM227.736 351.289c10.565-14.791 25.826-22.756 42.26-23.893h2.348c15.261 0 30.521 7.964 42.26 20.48l78.651 95.573c9.391 12.516 8.217 29.582-4.696 39.822-11.739 9.102-30.521 6.827-41.086-4.551l-75.129-91.022-23.478 34.133c-8.217 12.516-27 15.929-39.913 7.964-12.913-9.102-16.435-26.169-8.217-38.684l27-39.822zM667.948 421.831h-212.475c-16.435 0-29.347-12.516-29.347-28.444s12.913-28.444 29.347-28.444h213.649c16.435 0 29.347 12.516 29.347 28.444-1.174 15.929-14.087 28.444-30.521 28.444zM388.56 272.782c-11.739 9.102-30.521 6.827-41.086-4.551l-75.129-91.022-23.478 34.133c-5.869 7.964-14.087 12.516-23.478 12.516-5.869 0-11.739-1.138-16.435-4.551-5.869-4.551-10.565-10.24-11.739-18.204-1.174-6.827 0-14.791 4.696-21.618l27-38.684c10.565-14.791 25.826-23.893 42.26-23.893h2.348c15.261 0 30.521 7.964 42.26 20.48l78.651 95.573c4.696 5.689 7.043 13.653 5.869 20.48-2.348 7.964-5.869 14.791-11.739 19.342zM667.948 212.48h-212.475c-16.435 0-29.347-12.516-29.347-28.444s12.913-28.444 29.347-28.444h213.649c16.435 0 29.347 12.516 29.347 28.444s-14.087 28.444-30.521 28.444zM741.903 879.218h-27c-5.869 45.511-46.956 80.782-95.086 80.782h-309.909c-48.13 0-88.042-35.271-95.086-80.782h-27c-77.477 0-139.694-60.302-139.694-135.396v-672.427c0-75.093 62.217-135.396 139.694-135.396h555.254c77.477 0 139.694 60.302 139.694 135.396v672.427c-1.174 75.093-63.39 135.396-140.868 135.396zM272.344 867.84c0 20.48 16.435 36.409 37.565 36.409h311.083c21.13 0 37.565-15.929 37.565-36.409v-32.996c0-20.48-16.435-36.409-37.565-36.409h-311.083c-21.13 0-37.565 15.929-37.565 36.409v32.996zM824.076 71.396c0-44.373-36.391-79.644-82.173-79.644h-554.080c-45.782 0-82.173 35.271-82.173 79.644v672.427c0 44.373 36.391 79.644 82.173 79.644h27c5.869-45.511 46.956-80.782 95.086-80.782h311.083c48.13 0 88.042 35.271 95.086 80.782h27c45.782 0 82.173-35.271 82.173-79.644v-672.427h-1.174z" />
</font>
</defs>
</svg>
